<svg width="187" height="64" viewBox="0 0 187 64" fill="none" xmlns="http://www.w3.org/2000/svg">
<g filter="url(#filter0_d_18_1830)">
<path d="M120.521 30.0753V31.3642H113.837L111.738 26.5983H101.247L99.1492 31.3642H92.4649V30.0753H95.9419L104.604 10.4122H108.381L117.044 30.0753H120.521ZM110.3 23.3311L106.493 14.6985L102.686 23.3311H110.3ZM136.533 30.0753V31.3642H117.619V30.0753H120.526V10.4122H124.063V28.0071H133.625V30.0753H136.533ZM157.287 30.0753V31.3642H134.596V30.0753H141.85C140.112 29.1961 138.723 27.9072 137.684 26.2086C136.665 24.5101 136.155 22.5917 136.155 20.4536C136.155 17.3962 137.214 14.8784 139.332 12.9001C141.451 10.9018 144.018 9.90266 147.036 9.90266C150.073 9.90266 152.591 10.7819 154.589 12.5404L152.701 15.2381C151.882 14.5387 151.052 14.0591 150.213 13.7993C149.394 13.5195 148.435 13.3797 147.336 13.3797C145.197 13.3797 143.409 14.0191 141.97 15.298C140.551 16.5769 139.842 18.3254 139.842 20.5435C139.842 22.7616 140.541 24.5501 141.94 25.9089C143.339 27.2477 145.028 27.9172 147.006 27.9172C149.004 27.9172 150.673 27.4875 152.012 26.6283V20.8732H155.548V28.0371C154.809 28.8564 153.91 29.5358 152.851 30.0753H157.287ZM182.46 30.0753V31.3642H157.282V30.0753H164.146C162.508 29.1361 161.209 27.8472 160.25 26.2086C159.31 24.57 158.841 22.7416 158.841 20.7233C158.841 17.646 159.9 15.0782 162.018 13.02C164.136 10.9418 166.754 9.90266 169.871 9.90266C172.989 9.90266 175.606 10.9418 177.724 13.02C179.843 15.0782 180.902 17.646 180.902 20.7233C180.902 22.7216 180.422 24.5501 179.463 26.2086C178.524 27.8672 177.235 29.1561 175.596 30.0753H182.46ZM175.117 15.358C173.698 13.8792 171.949 13.1399 169.871 13.1399C167.793 13.1399 166.035 13.8792 164.596 15.358C163.177 16.8367 162.468 18.6351 162.468 20.7533C162.468 22.8515 163.177 24.64 164.596 26.1187C166.035 27.5974 167.793 28.3368 169.871 28.3368C171.949 28.3368 173.698 27.5974 175.117 26.1187C176.555 24.64 177.275 22.8515 177.275 20.7533C177.275 18.6351 176.555 16.8367 175.117 15.358Z" fill="url(#paint0_linear_18_1830)"/>
<path d="M120.521 30.0753H121.162V29.434H120.521V30.0753ZM120.521 31.3642V32.0055H121.162V31.3642H120.521ZM113.837 31.3642L113.25 31.6226L113.418 32.0055H113.837V31.3642ZM111.738 26.5983L112.325 26.3399L112.157 25.957H111.738V26.5983ZM101.247 26.5983V25.957H100.829L100.66 26.3399L101.247 26.5983ZM99.1492 31.3642V32.0055H99.5675L99.7361 31.6226L99.1492 31.3642ZM92.4649 31.3642H91.8237V32.0055H92.4649V31.3642ZM92.4649 30.0753V29.434H91.8237V30.0753H92.4649ZM95.9419 30.0753V30.7166H96.3602L96.5288 30.3338L95.9419 30.0753ZM104.604 10.4122V9.77095H104.186L104.018 10.1537L104.604 10.4122ZM108.381 10.4122L108.968 10.1537L108.799 9.77095H108.381V10.4122ZM117.044 30.0753L116.457 30.3338L116.626 30.7166H117.044V30.0753ZM110.3 23.3311V23.9724H111.283L110.886 23.0724L110.3 23.3311ZM106.493 14.6985L107.08 14.4398L106.493 13.1092L105.906 14.4398L106.493 14.6985ZM102.686 23.3311L102.099 23.0724L101.702 23.9724H102.686V23.3311ZM119.88 30.0753V31.3642H121.162V30.0753H119.88ZM120.521 30.7229H113.837V32.0055H120.521V30.7229ZM114.423 31.1058L112.325 26.3399L111.151 26.8567L113.25 31.6226L114.423 31.1058ZM111.738 25.957H101.247V27.2396H111.738V25.957ZM100.66 26.3399L98.5623 31.1058L99.7361 31.6226L101.834 26.8567L100.66 26.3399ZM99.1492 30.7229H92.4649V32.0055H99.1492V30.7229ZM93.1062 31.3642V30.0753H91.8237V31.3642H93.1062ZM92.4649 30.7166H95.9419V29.434H92.4649V30.7166ZM96.5288 30.3338L105.191 10.6707L104.018 10.1537L95.3551 29.8168L96.5288 30.3338ZM104.604 11.0535H108.381V9.77095H104.604V11.0535ZM107.794 10.6707L116.457 30.3338L117.631 29.8168L108.968 10.1537L107.794 10.6707ZM117.044 30.7166H120.521V29.434H117.044V30.7166ZM110.886 23.0724L107.08 14.4398L105.906 14.9573L109.713 23.5898L110.886 23.0724ZM105.906 14.4398L102.099 23.0724L103.273 23.5898L107.08 14.9573L105.906 14.4398ZM102.686 23.9724H110.3V22.6898H102.686V23.9724ZM136.533 30.0753H137.174V29.434H136.533V30.0753ZM136.533 31.3642V32.0055H137.174V31.3642H136.533ZM117.619 31.3642H116.978V32.0055H117.619V31.3642ZM117.619 30.0753V29.434H116.978V30.0753H117.619ZM120.526 30.0753V30.7166H121.168V30.0753H120.526ZM120.526 10.4122V9.77095H119.885V10.4122H120.526ZM124.063 10.4122H124.705V9.77095H124.063V10.4122ZM124.063 28.0071H123.422V28.6483H124.063V28.0071ZM133.625 28.0071H134.266V27.3658H133.625V28.0071ZM133.625 30.0753H132.984V30.7166H133.625V30.0753ZM135.891 30.0753V31.3642H137.174V30.0753H135.891ZM136.533 30.7229H117.619V32.0055H136.533V30.7229ZM118.26 31.3642V30.0753H116.978V31.3642H118.26ZM117.619 30.7166H120.526V29.434H117.619V30.7166ZM121.168 30.0753V10.4122H119.885V30.0753H121.168ZM120.526 11.0535H124.063V9.77095H120.526V11.0535ZM123.422 10.4122V28.0071H124.705V10.4122H123.422ZM124.063 28.6483H133.625V27.3658H124.063V28.6483ZM132.984 28.0071V30.0753H134.266V28.0071H132.984ZM133.625 30.7166H136.533V29.434H133.625V30.7166ZM157.287 30.0753H157.928V29.434H157.287V30.0753ZM157.287 31.3642V32.0055H157.928V31.3642H157.287ZM134.596 31.3642H133.955V32.0055H134.596V31.3642ZM134.596 30.0753V29.434H133.955V30.0753H134.596ZM141.85 30.0753V30.7166L142.14 29.5031L141.85 30.0753ZM137.684 26.2086L137.134 26.5386L137.137 26.5433L137.684 26.2086ZM139.332 12.9001L139.77 13.3687L139.772 13.3665L139.332 12.9001ZM154.589 12.5404L155.115 12.9081L155.444 12.4381L155.013 12.059L154.589 12.5404ZM152.701 15.2381L152.285 15.7258L152.821 16.1841L153.226 15.6058L152.701 15.2381ZM150.213 13.7993L150.006 14.4062L150.015 14.4092L150.023 14.4119L150.213 13.7993ZM141.97 15.298L141.544 14.8187L141.541 14.8217L141.97 15.298ZM141.94 25.9089L141.493 26.3689L141.497 26.3721L141.94 25.9089ZM152.012 26.6283L152.358 27.1679L152.653 26.9787V26.6283H152.012ZM152.012 20.8732V20.232H151.37V20.8732H152.012ZM155.548 20.8732H156.19V20.232H155.548V20.8732ZM155.548 28.0371L156.025 28.4667L156.19 28.2836V28.0371H155.548ZM152.851 30.0753L152.56 29.5039L152.851 30.7166V30.0753ZM156.646 30.0753V31.3642H157.928V30.0753H156.646ZM157.287 30.7229H134.596V32.0055H157.287V30.7229ZM135.238 31.3642V30.0753H133.955V31.3642H135.238ZM134.596 30.7166H141.85V29.434H134.596V30.7166ZM142.14 29.5031C140.51 28.6788 139.209 27.4733 138.231 25.874L137.137 26.5433C138.237 28.341 139.714 29.7133 141.561 30.6475L142.14 29.5031ZM138.234 25.8787C137.279 24.2877 136.796 22.4851 136.796 20.4536H135.514C135.514 22.6984 136.05 24.7325 137.134 26.5386L138.234 25.8787ZM136.796 20.4536C136.796 17.5629 137.79 15.2185 139.77 13.3687L138.895 12.4314C136.639 14.5383 135.514 17.2295 135.514 20.4536H136.796ZM139.772 13.3665C141.767 11.4849 144.175 10.5439 147.036 10.5439V9.26139C143.861 9.26139 141.134 10.3187 138.892 12.4336L139.772 13.3665ZM147.036 10.5439C149.941 10.5439 152.301 11.3808 154.166 13.0218L155.013 12.059C152.881 10.183 150.206 9.26139 147.036 9.26139V10.5439ZM154.064 12.1726L152.176 14.8703L153.226 15.6058L155.115 12.9081L154.064 12.1726ZM153.117 14.7503C152.246 14.0068 151.342 13.4774 150.403 13.1867L150.023 14.4119C150.763 14.6408 151.517 15.0705 152.285 15.7258L153.117 14.7503ZM150.42 13.1924C149.519 12.8847 148.487 12.7384 147.336 12.7384V14.0209C148.382 14.0209 149.268 14.1544 150.006 14.4062L150.42 13.1924ZM147.336 12.7384C145.059 12.7384 143.114 13.4237 141.544 14.8187L142.396 15.7773C143.704 14.6145 145.336 14.0209 147.336 14.0209V12.7384ZM141.541 14.8217C139.965 16.2422 139.201 18.176 139.201 20.5435H140.483C140.483 18.4748 141.138 16.9116 142.399 15.7743L141.541 14.8217ZM139.201 20.5435C139.201 22.9089 139.953 24.8723 141.493 26.3689L142.387 25.4489C141.13 24.2278 140.483 22.6143 140.483 20.5435H139.201ZM141.497 26.3721C143.018 27.828 144.866 28.5584 147.006 28.5584V27.2759C145.189 27.2759 143.66 26.6675 142.384 25.4456L141.497 26.3721ZM147.006 28.5584C149.096 28.5584 150.892 28.1086 152.358 27.1679L151.665 26.0886C150.453 26.8664 148.913 27.2759 147.006 27.2759V28.5584ZM152.653 26.6283V20.8732H151.37V26.6283H152.653ZM152.012 21.5145H155.548V20.232H152.012V21.5145ZM154.907 20.8732V28.0371H156.19V20.8732H154.907ZM155.072 27.6074C154.389 28.3642 153.554 28.9972 152.56 29.5039L153.142 30.6467C154.265 30.0744 155.229 29.3485 156.025 28.4667L155.072 27.6074ZM152.851 30.7166H157.287V29.434H152.851V30.7166ZM182.46 30.0753H183.102V29.434H182.46V30.0753ZM182.46 31.3642V32.0055H183.102V31.3642H182.46ZM157.282 31.3642H156.641V32.0055H157.282V31.3642ZM157.282 30.0753V29.434H156.641V30.0753H157.282ZM164.146 30.0753V30.7166H166.555L164.465 29.519L164.146 30.0753ZM160.25 26.2086L159.693 26.5275L159.696 26.5326L160.25 26.2086ZM162.018 13.02L162.465 13.4799L162.467 13.4777L162.018 13.02ZM177.724 13.02L177.275 13.4777L177.278 13.4799L177.724 13.02ZM179.463 26.2086L178.908 25.8876L178.905 25.8926L179.463 26.2086ZM175.596 30.0753L175.283 29.516L173.142 30.7166H175.596V30.0753ZM175.117 15.358L174.654 15.8019L174.657 15.8052L175.117 15.358ZM164.596 15.358L164.136 14.9108L164.133 14.914L164.596 15.358ZM164.596 26.1187L164.133 26.5627L164.136 26.5659L164.596 26.1187ZM175.117 26.1187L174.657 25.6715L174.654 25.6747L175.117 26.1187ZM181.819 30.0753V31.3642H183.102V30.0753H181.819ZM182.46 30.7229H157.282V32.0055H182.46V30.7229ZM157.923 31.3642V30.0753H156.641V31.3642H157.923ZM157.282 30.7166H164.146V29.434H157.282V30.7166ZM164.465 29.519C162.924 28.6357 161.706 27.4272 160.803 25.8847L159.696 26.5326C160.711 28.2672 162.091 29.6365 163.827 30.6317L164.465 29.519ZM160.806 25.8897C159.926 24.3549 159.482 22.6377 159.482 20.7233H158.199C158.199 22.8456 158.695 24.7852 159.693 26.5275L160.806 25.8897ZM159.482 20.7233C159.482 17.8111 160.477 15.4118 162.465 13.4799L161.571 12.5601C159.323 14.7446 158.199 17.4809 158.199 20.7233H159.482ZM162.467 13.4777C164.459 11.5236 166.912 10.5439 169.871 10.5439V9.26139C166.595 9.26139 163.814 10.36 161.569 12.5622L162.467 13.4777ZM169.871 10.5439C172.83 10.5439 175.284 11.5236 177.275 13.4777L178.174 12.5622C175.929 10.36 173.147 9.26139 169.871 9.26139V10.5439ZM177.278 13.4799C179.266 15.4118 180.26 17.8111 180.26 20.7233H181.543C181.543 17.4809 180.42 14.7446 178.171 12.5601L177.278 13.4799ZM180.26 20.7233C180.26 22.614 179.808 24.3309 178.908 25.8876L180.018 26.5297C181.036 24.7692 181.543 22.8293 181.543 20.7233H180.26ZM178.905 25.8926C178.023 27.4509 176.818 28.655 175.283 29.516L175.91 30.6346C177.652 29.6572 179.025 28.2835 180.021 26.5246L178.905 25.8926ZM175.596 30.7166H182.46V29.434H175.596V30.7166ZM175.579 14.914C174.038 13.3072 172.121 12.4986 169.871 12.4986V13.7811C171.778 13.7811 173.358 14.4512 174.654 15.8019L175.579 14.914ZM169.871 12.4986C167.621 12.4986 165.697 13.3069 164.136 14.9108L165.055 15.8052C166.372 14.4515 167.965 13.7811 169.871 13.7811V12.4986ZM164.133 14.914C162.595 16.5165 161.826 18.4758 161.826 20.7533H163.109C163.109 18.7944 163.758 17.1569 165.058 15.8019L164.133 14.914ZM161.826 20.7533C161.826 23.0126 162.597 24.9614 164.133 26.5627L165.058 25.6747C163.757 24.3186 163.109 22.6904 163.109 20.7533H161.826ZM164.136 26.5659C165.697 28.1697 167.621 28.9781 169.871 28.9781V27.6955C167.965 27.6955 166.372 27.0252 165.055 25.6715L164.136 26.5659ZM169.871 28.9781C172.121 28.9781 174.038 28.1694 175.579 26.5627L174.654 25.6747C173.358 27.0254 171.778 27.6955 169.871 27.6955V28.9781ZM175.576 26.5659C177.134 24.9652 177.916 23.0154 177.916 20.7533H176.634C176.634 22.6877 175.977 24.3148 174.657 25.6715L175.576 26.5659ZM177.916 20.7533C177.916 18.4731 177.135 16.5127 175.576 14.9108L174.657 15.8052C175.976 17.1607 176.634 18.7972 176.634 20.7533H177.916ZM118.325 56.2414H118.966V55.6001H118.325V56.2414ZM118.325 57.3642V58.0055H118.966V57.3642H118.325ZM112.71 57.3642H112.069V58.0055H112.71V57.3642ZM112.71 43.1067H113.352L112.138 42.8185L112.71 43.1067ZM106.339 55.7713V56.4126H106.734L106.912 56.0595L106.339 55.7713ZM104.616 55.7713L104.042 56.0586L104.22 56.4126H104.616V55.7713ZM98.2702 43.1067L98.8435 42.8194L97.6289 43.1067H98.2702ZM98.2702 57.3642V58.0055H98.9114V57.3642H98.2702ZM92.6559 57.3642H92.0147V58.0055H92.6559V57.3642ZM92.6559 56.2414V55.6001H92.0147V56.2414H92.6559ZM95.1889 56.2414V56.8826H95.8301V56.2414H95.1889ZM95.1889 39.1115V38.4702H94.5476V39.1115H95.1889ZM99.9936 39.1115L100.572 38.8337L100.397 38.4702H99.9936V39.1115ZM105.503 50.5749L104.925 50.8527L105.503 52.0552L106.081 50.8527L105.503 50.5749ZM111.013 39.1115V38.4702H110.61L110.435 38.8337L111.013 39.1115ZM115.792 39.1115H116.433V38.4702H115.792V39.1115ZM115.792 56.2414H115.15V56.8826H115.792V56.2414ZM117.683 56.2414V57.3642H118.966V56.2414H117.683ZM118.325 56.7229H112.71V58.0055H118.325V56.7229ZM113.352 57.3642V43.1067H112.069V57.3642H113.352ZM112.138 42.8185L105.766 55.4831L106.912 56.0595L113.283 43.3949L112.138 42.8185ZM106.339 55.1301H104.616V56.4126H106.339V55.1301ZM105.189 55.4841L98.8435 42.8194L97.6968 43.394L104.042 56.0586L105.189 55.4841ZM97.6289 43.1067V57.3642H98.9114V43.1067H97.6289ZM98.2702 56.7229H92.6559V58.0055H98.2702V56.7229ZM93.2972 57.3642V56.2414H92.0147V57.3642H93.2972ZM92.6559 56.8826H95.1889V55.6001H92.6559V56.8826ZM95.8301 56.2414V39.1115H94.5476V56.2414H95.8301ZM95.1889 39.7527H99.9936V38.4702H95.1889V39.7527ZM99.4156 39.3893L104.925 50.8527L106.081 50.2971L100.572 38.8337L99.4156 39.3893ZM106.081 50.8527L111.591 39.3893L110.435 38.8337L104.925 50.2971L106.081 50.8527ZM111.013 39.7527H115.792V38.4702H111.013V39.7527ZM115.15 39.1115V56.2414H116.433V39.1115H115.15ZM115.792 56.8826H118.325V55.6001H115.792V56.8826ZM120.868 56.2414V56.8826H121.509V56.2414H120.868ZM120.868 39.1115V38.4702H120.227V39.1115H120.868ZM123.949 39.1115H124.591V38.4702H123.949V39.1115ZM123.949 56.2414H123.308V56.8826H123.949V56.2414ZM126.482 56.2414H127.123V55.6001H126.482V56.2414ZM126.482 57.3642V58.0055H127.123V57.3642H126.482ZM118.335 57.3642H117.694V58.0055H118.335V57.3642ZM118.335 56.2414V55.6001H117.694V56.2414H118.335ZM121.509 56.2414V39.1115H120.227V56.2414H121.509ZM120.868 39.7527H123.949V38.4702H120.868V39.7527ZM123.308 39.1115V56.2414H124.591V39.1115H123.308ZM123.949 56.8826H126.482V55.6001H123.949V56.8826ZM125.841 56.2414V57.3642H127.123V56.2414H125.841ZM126.482 56.7229H118.335V58.0055H126.482V56.7229ZM118.976 57.3642V56.2414H117.694V57.3642H118.976ZM118.335 56.8826H120.868V55.6001H118.335V56.8826ZM129.003 56.2414V56.8826H129.644V56.2414H129.003ZM129.003 39.1115V38.4702H128.361V39.1115H129.003ZM132.084 39.1115L132.59 38.7178L132.398 38.4702H132.084V39.1115ZM142.686 52.7423L142.18 53.136L143.327 54.6112V52.7423H142.686ZM142.686 39.1115V38.4702H142.044V39.1115H142.686ZM145.767 39.1115H146.408V38.4702H145.767V39.1115ZM145.767 56.2414H145.126V56.8826H145.767V56.2414ZM148.3 56.2414H148.941V55.6001H148.3V56.2414ZM148.3 57.3642V58.0055H148.941V57.3642H148.3ZM142.425 57.3642L141.918 57.7575L142.111 58.0055H142.425V57.3642ZM132.084 44.0468L132.59 43.6535L131.443 42.1753V44.0468H132.084ZM132.084 57.3642V58.0055H132.725V57.3642H132.084ZM126.47 57.3642H125.828V58.0055H126.47V57.3642ZM126.47 56.2414V55.6001H125.828V56.2414H126.47ZM129.644 56.2414V39.1115H128.361V56.2414H129.644ZM129.003 39.7527H132.084V38.4702H129.003V39.7527ZM131.578 39.5052L142.18 53.136L143.192 52.3486L132.59 38.7178L131.578 39.5052ZM143.327 52.7423V39.1115H142.044V52.7423H143.327ZM142.686 39.7527H145.767V38.4702H142.686V39.7527ZM145.126 39.1115V56.2414H146.408V39.1115H145.126ZM145.767 56.8826H148.3V55.6001H145.767V56.8826ZM147.659 56.2414V57.3642H148.941V56.2414H147.659ZM148.3 56.7229H142.425V58.0055H148.3V56.7229ZM142.931 56.9709L132.59 43.6535L131.577 44.44L141.918 57.7575L142.931 56.9709ZM131.443 44.0468V57.3642H132.725V44.0468H131.443ZM132.084 56.7229H126.47V58.0055H132.084V56.7229ZM127.111 57.3642V56.2414H125.828V57.3642H127.111ZM126.47 56.8826H129.003V55.6001H126.47V56.8826ZM168.718 56.2414H169.36V55.6001H168.718V56.2414ZM168.718 57.3642V58.0055H169.36V57.3642H168.718ZM148.298 57.3642H147.657V58.0055H148.298V57.3642ZM148.298 56.2414V55.6001H147.657V56.2414H148.298ZM150.831 56.2414V56.8826H151.472V56.2414H150.831ZM150.831 39.1115V38.4702H150.19V39.1115H150.831ZM164.645 41.5138L164.213 41.9879L164.216 41.9902L164.645 41.5138ZM162.686 56.2414L162.41 55.6626L162.686 56.8826V56.2414ZM153.913 41.9577V41.3165H153.271V41.9577H153.913ZM153.913 54.4657H153.271V55.107H153.913V54.4657ZM162.399 52.8989L162.827 53.3766L162.827 53.3763L162.399 52.8989ZM168.077 56.2414V57.3642H169.36V56.2414H168.077ZM168.718 56.7229H148.298V58.0055H168.718V56.7229ZM148.94 57.3642V56.2414H147.657V57.3642H148.94ZM148.298 56.8826H150.831V55.6001H148.298V56.8826ZM151.472 56.2414V39.1115H150.19V56.2414H151.472ZM150.831 39.7527H157.098V38.4702H150.831V39.7527ZM157.098 39.7527C160.272 39.7527 162.611 40.5287 164.213 41.9879L165.077 41.0398C163.162 39.2958 160.47 38.4702 157.098 38.4702V39.7527ZM164.216 41.9902C165.81 43.4265 166.641 45.4732 166.641 48.2248H167.923C167.923 45.1968 166.996 42.7695 165.074 41.0374L164.216 41.9902ZM166.641 48.2248C166.641 50.0826 166.274 51.6047 165.577 52.8215C164.882 54.0331 163.837 54.9816 162.41 55.6626L162.963 56.8201C164.6 56.0388 165.852 54.9201 166.69 53.4594C167.524 52.0041 167.923 50.249 167.923 48.2248H166.641ZM162.686 56.8826H168.718V55.6001H162.686V56.8826ZM164.816 48.2248C164.816 46.0125 164.178 44.2432 162.801 43.0414C161.441 41.8541 159.466 41.3165 156.994 41.3165V42.599C159.308 42.599 160.925 43.1059 161.958 44.0076C162.974 44.8948 163.534 46.259 163.534 48.2248H164.816ZM156.994 41.3165H153.913V42.599H156.994V41.3165ZM153.271 41.9577V54.4657H154.554V41.9577H153.271ZM153.913 55.107H157.333V53.8244H153.913V55.107ZM157.333 55.107C159.637 55.107 161.502 54.5629 162.827 53.3766L161.971 52.4212C160.963 53.324 159.451 53.8244 157.333 53.8244V55.107ZM162.827 53.3763C164.184 52.1595 164.816 50.4046 164.816 48.2248H163.534C163.534 50.1533 162.982 51.5145 161.971 52.4216L162.827 53.3763ZM185.175 56.2414H185.817V55.6001H185.175V56.2414ZM185.175 57.3642V58.0055H185.817V57.3642H185.175ZM168.724 57.3642H168.083V58.0055H168.724V57.3642ZM168.724 56.2414V55.6001H168.083V56.2414H168.724ZM172.067 56.2414V56.8826L172.363 55.6726L172.067 56.2414ZM169.769 54.6224L169.276 54.2124L168.887 54.6801L169.333 55.0931L169.769 54.6224ZM171.701 52.2983L172.121 51.8141L171.627 51.3847L171.208 51.8884L171.701 52.2983ZM179.796 54.074L180.173 54.5926L180.176 54.5906L179.796 54.074ZM179.848 50.7316L179.466 51.2466L179.475 51.2535L179.485 51.26L179.848 50.7316ZM177.028 49.661L176.874 50.2836L176.882 50.2854L177.028 49.661ZM173.973 48.7731L173.735 49.3687L173.748 49.3736L173.973 48.7731ZM172.119 47.7025L172.521 47.2034L172.514 47.1973L172.506 47.1915L172.119 47.7025ZM172.328 40.0515L172.71 40.5663L172.711 40.5654L172.328 40.0515ZM180.371 39.242L180.168 39.8504L180.168 39.8504L180.371 39.242ZM183.347 40.861L183.871 41.2315L184.213 40.7478L183.758 40.3684L183.347 40.861ZM181.702 43.185L181.272 43.6609L181.808 44.145L182.226 43.5555L181.702 43.185ZM174.574 45.4307L174.207 45.9569L174.218 45.9643L174.574 45.4307ZM178.229 46.6841L178.078 47.3073L178.079 47.3076L178.229 46.6841ZM182.46 48.5904L182.039 49.0741L182.043 49.0779L182.46 48.5904ZM181.911 56.2414L181.522 55.7316L180.014 56.8826H181.911V56.2414ZM184.534 56.2414V57.3642H185.817V56.2414H184.534ZM185.175 56.7229H168.724V58.0055H185.175V56.7229ZM169.366 57.3642V56.2414H168.083V57.3642H169.366ZM168.724 56.8826H172.067V55.6001H168.724V56.8826ZM172.363 55.6726C171.578 55.2639 170.859 54.7573 170.204 54.1516L169.333 55.0931C170.071 55.7757 170.884 56.3484 171.77 56.8101L172.363 55.6726ZM170.262 55.0324L172.194 52.7083L171.208 51.8884L169.276 54.2124L170.262 55.0324ZM171.281 52.7826C173.215 54.4611 175.273 55.342 177.446 55.342V54.0594C175.649 54.0594 173.878 53.3387 172.121 51.8141L171.281 52.7826ZM177.446 55.342C178.521 55.342 179.453 55.1162 180.173 54.5926L179.419 53.5554C178.99 53.8674 178.355 54.0594 177.446 54.0594V55.342ZM180.176 54.5906C180.922 54.0424 181.325 53.2898 181.325 52.3767H180.043C180.043 52.8562 179.854 53.2352 179.416 53.5574L180.176 54.5906ZM181.325 52.3767C181.325 51.4658 180.954 50.7135 180.212 50.2032L179.485 51.26C179.857 51.5157 180.043 51.8601 180.043 52.3767H181.325ZM180.23 50.2166C179.579 49.7333 178.529 49.3533 177.174 49.0365L176.882 50.2854C178.208 50.5954 179.038 50.9291 179.466 51.2466L180.23 50.2166ZM177.182 49.0384C175.849 48.7095 174.859 48.4206 174.198 48.1727L173.748 49.3736C174.479 49.648 175.527 49.951 176.874 50.2836L177.182 49.0384ZM174.211 48.1777C173.569 47.921 173.008 47.5953 172.521 47.2034L171.716 48.2017C172.31 48.6801 172.984 49.0682 173.735 49.3685L174.211 48.1777ZM172.506 47.1915C171.626 46.5242 171.141 45.4851 171.141 43.9423H169.859C169.859 45.7767 170.453 47.2444 171.732 48.2135L172.506 47.1915ZM171.141 43.9423C171.141 42.4303 171.675 41.3357 172.71 40.5663L171.945 39.5367C170.544 40.5778 169.859 42.0771 169.859 43.9423H171.141ZM172.711 40.5654C173.818 39.7392 175.2 39.3088 176.898 39.3088V38.0263C174.974 38.0263 173.309 38.5186 171.944 39.5376L172.711 40.5654ZM176.898 39.3088C177.992 39.3088 179.082 39.4884 180.168 39.8504L180.573 38.6337C179.361 38.2297 178.135 38.0263 176.898 38.0263V39.3088ZM180.168 39.8504C181.249 40.2109 182.169 40.714 182.937 41.3536L183.758 40.3684C182.854 39.6154 181.79 39.0391 180.573 38.6337L180.168 39.8504ZM182.824 40.4905L181.179 42.8145L182.226 43.5555L183.871 41.2315L182.824 40.4905ZM182.132 42.7092C181.51 42.1469 180.694 41.7091 179.715 41.3767L179.303 42.5911C180.169 42.8853 180.816 43.2483 181.272 43.6609L182.132 42.7092ZM179.715 41.3767C178.731 41.0425 177.748 40.8726 176.767 40.8726V42.1551C177.597 42.1551 178.441 42.2985 179.303 42.5911L179.715 41.3767ZM176.767 40.8726C175.794 40.8726 174.934 41.073 174.229 41.5212L174.918 42.6032C175.362 42.3202 175.965 42.1551 176.767 42.1551V40.8726ZM174.229 41.5212C173.449 42.0177 173.071 42.7915 173.071 43.7334H174.353C174.353 43.1782 174.549 42.8378 174.918 42.6032L174.229 41.5212ZM173.071 43.7334C173.071 44.6633 173.452 45.4304 174.207 45.9568L174.94 44.9046C174.547 44.6303 174.353 44.2658 174.353 43.7334H173.071ZM174.218 45.9643C174.575 46.2023 175.086 46.4237 175.71 46.6379C176.345 46.8554 177.136 47.0783 178.078 47.3073L178.381 46.061C177.46 45.8373 176.71 45.625 176.126 45.4247C175.532 45.2211 175.147 45.0422 174.929 44.8972L174.218 45.9643ZM178.079 47.3076C179.909 47.7481 181.208 48.3508 182.039 49.0741L182.881 48.1066C181.831 47.1935 180.31 46.5254 178.379 46.0607L178.079 47.3076ZM182.043 49.0779C182.832 49.7525 183.254 50.7088 183.254 52.0372H184.537C184.537 50.4062 184.002 49.0646 182.876 48.1028L182.043 49.0779ZM183.254 52.0372C183.254 53.6482 182.673 54.8537 181.522 55.7316L182.3 56.7511C183.796 55.6097 184.537 54.0123 184.537 52.0372H183.254ZM181.911 56.8826H185.175V55.6001H181.911V56.8826Z" fill="url(#paint1_linear_18_1830)"/>
</g>
<path d="M55.4664 63.9753C49.4564 64.0253 45.1564 61.2303 42.3864 55.9903C41.7264 54.7403 41.0514 53.8153 39.4514 53.7053C33.6714 53.3003 28.8864 50.9253 25.3814 46.2153C24.4564 44.9753 23.5664 45.5653 22.5614 46.0503C16.3814 49.0203 10.5414 48.3303 5.30137 43.9953C-1.78863 38.1253 -2.73863 24.2403 8.48637 18.3203C9.78637 17.6353 10.4314 16.8803 10.7414 15.4103C12.5314 7.02031 19.8764 2.16031 28.2564 3.84031C30.2864 4.24531 31.8664 3.96531 33.6214 2.82031C40.3964 -1.59969 49.3164 -0.734689 55.3264 4.78531C56.2914 5.67031 57.1814 6.23031 58.6264 6.08031C66.1664 5.28531 73.5014 10.6253 75.0614 18.0503C75.4864 20.0753 76.2564 21.6503 77.7914 23.1553C85.4414 30.6453 83.6314 42.8753 74.0864 47.8003C71.6064 49.0803 70.2614 50.5053 69.6214 53.3053C68.4414 58.4553 65.0364 61.8603 59.9314 63.4853C58.4664 63.9553 56.9764 63.9453 55.4664 63.9753ZM28.5564 20.6603C28.6514 24.4453 31.7514 28.6653 37.1964 31.4103C39.0264 32.3353 40.4614 32.9053 42.2264 31.0053C43.9464 29.1453 46.9014 29.5503 48.4664 31.3853C50.0564 33.2503 49.9114 36.0653 48.1314 37.7153C46.1564 39.5503 43.5064 39.5553 41.7214 37.5003C40.7764 36.4103 39.6914 35.8953 38.3814 35.5253C34.3214 34.3703 30.8764 32.1603 28.5264 28.6753C24.4314 22.6003 23.8964 16.1603 27.3564 9.55531C27.9914 8.34031 28.6614 7.13031 26.5114 6.90531C18.9014 6.12031 13.6814 11.8803 13.7214 18.6203C13.7314 20.4753 14.3264 22.2303 16.8114 22.4103C18.0664 22.5003 19.1614 23.2103 19.7864 24.4403C20.7064 26.2553 20.6464 27.9803 19.2814 29.5503C17.6464 31.4303 15.4764 31.1903 13.4914 30.6103C11.6214 30.0653 11.3864 28.1903 11.2864 26.4953C11.2364 25.6753 11.4964 24.8403 11.4914 24.0153C11.4864 23.1653 11.2564 22.2953 10.4864 21.8353C9.57637 21.2903 8.96137 22.0653 8.29137 22.5403C2.69637 26.5253 1.43137 34.6903 6.57137 40.5503C10.7464 45.3103 18.4514 45.6853 23.5564 41.0653C24.8414 39.9003 25.5264 39.6553 26.4264 41.5403C28.2414 45.3503 31.0164 48.1503 35.2564 49.4453C42.0264 51.5153 50.0464 47.8503 52.3714 41.4203C55.1114 33.8403 51.8464 25.9953 44.7664 23.2103C42.8764 22.4703 41.1364 21.9703 39.2814 23.7603C37.3614 25.6103 34.4914 25.1303 32.8464 23.1403C31.2914 21.2603 31.4964 18.8303 33.3564 17.1103C35.3564 15.2553 37.7914 15.2853 39.7764 17.2903C40.5564 18.0803 41.3214 18.6353 42.4714 18.8903C50.2014 20.6103 55.7464 26.4253 56.5864 33.5703C57.5364 41.5953 53.9414 48.2403 46.5014 51.9153C44.9664 52.6753 44.8264 53.4253 45.5764 54.8203C47.7364 58.8303 52.0714 61.1403 56.8414 60.7203C61.3714 60.3203 65.0664 57.1353 66.4264 52.4203C66.6464 51.6553 67.2164 50.7853 66.4364 50.0803C65.6414 49.3653 64.5814 49.3103 63.5914 49.5603C62.9664 49.7153 62.4164 50.1653 61.8164 50.4553C59.2964 51.6753 56.7914 50.9203 55.6364 48.6053C54.5214 46.3753 55.2564 43.7353 57.3364 42.4903C59.5214 41.1853 62.1464 41.8503 63.4814 44.3453C64.2914 45.8553 65.3564 46.2953 66.8914 46.2653C71.8564 46.1603 75.6164 43.8603 77.7564 39.5053C79.7814 35.3753 79.6664 31.1203 76.7314 27.2553C76.3064 26.7003 76.0814 25.5653 75.1864 25.9853C74.2414 26.4303 75.0414 27.2753 75.2414 27.9403C76.0414 30.5753 74.9214 32.9703 72.5014 33.8203C70.1064 34.6603 67.5264 33.5853 66.6564 31.3853C65.6714 28.8903 66.6864 26.1203 69.3464 25.2753C71.7664 24.5053 72.1114 22.9203 72.0014 20.8753C71.9164 19.2853 71.6414 17.6753 70.8864 16.2903C68.7764 12.4303 65.7264 9.79531 61.1064 9.54031C60.5814 9.51031 59.2664 9.31031 59.6864 10.1953C60.6614 12.2553 60.3864 14.8103 62.4714 16.4553C64.9464 18.4103 65.2814 21.2003 63.5664 23.2403C62.0214 25.0753 59.0714 25.4453 57.2464 24.0303C55.2214 22.4603 54.8814 19.7453 56.6264 17.3453C57.5914 16.0153 57.5914 14.8003 57.0814 13.3703C54.6714 6.60031 47.8264 2.39531 40.9564 3.50531C33.7464 4.69031 28.5814 10.8153 28.5564 20.6603Z" fill="url(#paint2_linear_18_1830)"/>
<line x1="86.5587" y1="62.1287" x2="86.5587" y2="4.21526" stroke="url(#paint3_linear_18_1830)" stroke-width="0.486114"/>
<line x1="88.4336" y1="35.2191" x2="182.561" y2="35.2191" stroke="url(#paint4_linear_18_1830)" stroke-width="0.486114"/>
<defs>
<filter id="filter0_d_18_1830" x="91.1823" y="9.90265" width="95.275" height="50.0266" filterUnits="userSpaceOnUse" color-interpolation-filters="sRGB">
<feFlood flood-opacity="0" result="BackgroundImageFix"/>
<feColorMatrix in="SourceAlpha" type="matrix" values="0 0 0 0 0 0 0 0 0 0 0 0 0 0 0 0 0 0 127 0" result="hardAlpha"/>
<feOffset dy="1.28253"/>
<feGaussianBlur stdDeviation="0.641263"/>
<feComposite in2="hardAlpha" operator="out"/>
<feColorMatrix type="matrix" values="0 0 0 0 0 0 0 0 0 0 0 0 0 0 0 0 0 0 0.25 0"/>
<feBlend mode="normal" in2="BackgroundImageFix" result="effect1_dropShadow_18_1830"/>
<feBlend mode="normal" in="SourceGraphic" in2="effect1_dropShadow_18_1830" result="shape"/>
</filter>
<linearGradient id="paint0_linear_18_1830" x1="139.275" y1="33.5632" x2="169.272" y2="62.8103" gradientUnits="userSpaceOnUse">
<stop stop-color="#00D8D8"/>
<stop offset="1" stop-color="#4F9D9C"/>
</linearGradient>
<linearGradient id="paint1_linear_18_1830" x1="151.22" y1="6.54314" x2="135.422" y2="69.7582" gradientUnits="userSpaceOnUse">
<stop stop-color="#03FDFC"/>
<stop offset="1" stop-color="#00D8D8"/>
</linearGradient>
<linearGradient id="paint2_linear_18_1830" x1="41.5964" y1="32.2153" x2="74.5964" y2="57.2153" gradientUnits="userSpaceOnUse">
<stop stop-color="#00D8D8"/>
<stop offset="1" stop-color="#4F9D9C"/>
</linearGradient>
<linearGradient id="paint3_linear_18_1830" x1="86.8017" y1="5.64877" x2="86.8017" y2="58.975" gradientUnits="userSpaceOnUse">
<stop stop-color="#02E8E8" stop-opacity="0"/>
<stop offset="0.458333" stop-color="#02E6E5"/>
<stop offset="1" stop-color="#02EDED" stop-opacity="0"/>
</linearGradient>
<linearGradient id="paint4_linear_18_1830" x1="180.231" y1="35.4621" x2="93.5593" y2="35.4622" gradientUnits="userSpaceOnUse">
<stop stop-color="#02E8E8" stop-opacity="0"/>
<stop offset="0.458333" stop-color="#02E6E5"/>
<stop offset="1" stop-color="#02EDED" stop-opacity="0"/>
</linearGradient>
</defs>
</svg>
