<svg width="60" height="60" viewBox="0 0 60 60" fill="none" xmlns="http://www.w3.org/2000/svg">
<path d="M50.6094 21.7352V43.8492C50.6094 44.4963 50.0846 45.0211 49.4375 45.0211H34.9606V54.6152H39.5928C40.2373 54.6152 40.7647 55.1426 40.7647 55.7871V58.0849C40.7647 58.7294 40.2373 59.2568 39.5928 59.2568H20.4022C19.7577 59.2568 19.2303 58.7294 19.2303 58.0849V55.7871C19.2303 55.1426 19.7577 54.6152 20.4022 54.6152H25.0344V45.0211H10.8985C10.062 45.0211 9.38867 44.3447 9.38867 43.5112V22.0732C9.38867 21.2398 10.062 20.5634 10.8985 20.5634H49.4375C50.0846 20.5634 50.6094 21.0879 50.6094 21.7352Z" fill="#E7E7E7"/>
<path d="M50.6107 21.7352V43.8492C50.6107 44.4963 50.0859 45.0211 49.4388 45.0211H34.962V54.6152H39.5941C40.2387 54.6152 40.766 55.1426 40.766 55.7871V58.0849C40.766 58.7294 40.2387 59.2568 39.5941 59.2568H25.2049C24.5604 59.2568 24.033 58.7294 24.033 58.0849V55.7871C24.033 55.1426 24.5604 54.6152 25.2049 54.6152H29.8402V45.0211H15.3633C14.7162 45.0211 14.1914 44.4963 14.1914 43.8492V21.7352C14.1914 21.0881 14.7162 20.5634 15.3633 20.5634H49.4388C50.0859 20.5634 50.6107 21.0879 50.6107 21.7352Z" fill="white"/>
<path d="M45.8261 41.8251H14.17C13.3361 41.8251 12.6602 41.1491 12.6602 40.3152V25.2674C12.6602 24.4335 13.3361 23.7576 14.17 23.7576H45.8261C46.66 23.7576 47.3359 24.4335 47.3359 25.2674V40.3152C47.3359 41.1491 46.66 41.8251 45.8261 41.8251Z" fill="#3FE0FF"/>
<path d="M14.1906 23.7576V41.8255H14.1695C13.3352 41.8255 12.6602 41.1482 12.6602 40.3162V25.2669C12.6602 24.4326 13.3352 23.7576 14.1695 23.7576H14.1906Z" fill="#0889A5"/>
<path d="M21.4101 39.96H16.5859C15.9388 39.96 15.4141 39.4352 15.4141 38.7881V36.5615C15.4141 35.9144 15.9388 35.3896 16.5859 35.3896H21.4101C22.0572 35.3896 22.582 35.9144 22.582 36.5615V38.7881C22.582 39.4354 22.0572 39.96 21.4101 39.96Z" fill="#0889A5"/>
<path d="M32.412 39.96H27.5879C26.9408 39.96 26.416 39.4352 26.416 38.7881V36.5615C26.416 35.9144 26.9408 35.3896 27.5879 35.3896H32.412C33.0591 35.3896 33.5839 35.9144 33.5839 36.5615V38.7881C33.5839 39.4354 33.0594 39.96 32.412 39.96Z" fill="#0889A5"/>
<path d="M43.457 39.96H38.6328C37.9857 39.96 37.4609 39.4352 37.4609 38.7881V36.5615C37.4609 35.9144 37.9857 35.3896 38.6328 35.3896H43.457C44.1041 35.3896 44.6288 35.9144 44.6288 36.5615V38.7881C44.6288 39.4354 44.1043 39.96 43.457 39.96Z" fill="#0889A5"/>
<path d="M45.5766 15.7457C45.4852 15.673 45.4852 15.5347 45.5766 15.4597C46.5609 14.6629 47.1914 13.4465 47.1914 12.0824C47.1914 9.99177 45.7148 8.24568 43.7461 7.83083C43.6477 7.81208 43.5797 7.71833 43.5984 7.6199C43.6711 7.21912 43.6734 6.79255 43.582 6.35193C43.2844 4.89177 42.0305 3.78552 40.5422 3.67771C40.05 3.64255 39.5789 3.71286 39.15 3.8699C39.0539 3.90271 38.9508 3.8324 38.9531 3.73161C38.9531 3.01677 38.6695 2.36052 38.2078 1.8824C37.7461 1.40193 37.1063 1.09958 36.3914 1.09724C35.7398 1.0949 35.1469 1.3363 34.6922 1.7324C34.6078 1.80505 34.4813 1.79099 34.418 1.69958C33.9609 1.05036 33.1969 0.633177 32.3367 0.66599C31.0195 0.715208 30 1.8449 30 3.16208V28.0457C30 29.3629 31.0195 30.4902 32.3367 30.5418C33.1969 30.5746 33.9609 30.1574 34.418 29.5082C34.4813 29.4168 34.6078 29.4004 34.6922 29.473C35.3016 30.0051 36.1617 30.2558 37.0734 30.0191C38.1914 29.7261 38.9531 28.6902 38.9531 27.5347V27.5324C38.9531 27.4011 39.082 27.3144 39.2062 27.3566C39.6211 27.4996 40.0711 27.5629 40.5422 27.5277C42.0305 27.4199 43.2844 26.3136 43.582 24.8535C43.6734 24.4152 43.6711 23.9886 43.5984 23.5855C43.5797 23.4871 43.6477 23.3957 43.7461 23.3746C45.7148 22.9597 47.1914 21.216 47.1914 19.1254C47.1914 18.1761 46.8867 17.2996 46.3711 16.5871C46.1438 16.273 45.8766 15.9894 45.5766 15.7457Z" fill="#0889A5"/>
<path d="M27.6633 0.66599C26.8031 0.633177 26.0391 1.05036 25.582 1.69958C25.5188 1.79099 25.3922 1.80505 25.3078 1.7324C24.6984 1.20036 23.8383 0.949583 22.9266 1.18865C21.8086 1.48161 21.0469 2.51521 21.0469 3.67068V3.67302C21.0469 3.80427 20.918 3.89099 20.7937 3.8488C20.3789 3.70583 19.9289 3.64255 19.4578 3.67771C17.9695 3.78552 16.7156 4.89177 16.418 6.35193C16.3266 6.79255 16.3289 7.21912 16.4016 7.6199C16.4203 7.71833 16.3523 7.81208 16.2539 7.83083C14.2852 8.24568 12.8086 9.99177 12.8086 12.0824C12.8086 13.4465 13.4391 14.6629 14.4234 15.4597C14.5148 15.5347 14.5148 15.673 14.4234 15.7457C14.1234 15.9894 13.8563 16.273 13.6289 16.5871C13.1133 17.2996 12.8086 18.1761 12.8086 19.1254C12.8086 21.216 14.2852 22.9597 16.2539 23.3746C16.3523 23.3957 16.4203 23.4871 16.4016 23.5855C16.3289 23.9886 16.3266 24.4152 16.418 24.8535C16.7156 26.3136 17.9695 27.4199 19.4578 27.5277C19.95 27.5652 20.4211 27.4926 20.85 27.3379C20.9461 27.3027 21.0492 27.373 21.0469 27.4761C21.0469 28.1886 21.3305 28.8449 21.7922 29.3254C22.2539 29.8035 22.8938 30.1058 23.6086 30.1082C24.2602 30.1105 24.8531 29.8715 25.3078 29.473C25.3922 29.4004 25.5188 29.4168 25.582 29.5082C26.0391 30.1574 26.8031 30.5746 27.6633 30.5418C28.9805 30.4902 30 29.3629 30 28.0457V3.16185C30 1.8449 28.9805 0.714974 27.6633 0.66599Z" fill="#0889A5"/>
<path d="M45.5766 15.7457C45.4852 15.673 45.4852 15.5347 45.5766 15.4597C46.5609 14.6629 47.1914 13.4465 47.1914 12.0824C47.1914 9.99177 45.7148 8.24568 43.7461 7.83083C43.6477 7.81208 43.5797 7.71833 43.5984 7.6199C43.6711 7.21912 43.6734 6.79255 43.582 6.35193C43.2844 4.89177 42.0305 3.78552 40.5422 3.67771C40.05 3.64255 39.5789 3.71286 39.15 3.8699C39.0539 3.90271 38.9508 3.8324 38.9531 3.73161C38.9531 3.01677 38.6695 2.36052 38.2078 1.8824C37.7461 1.40193 37.1063 1.09958 36.3914 1.09724C35.7398 1.0949 35.1469 1.3363 34.6922 1.7324C34.6078 1.80505 34.4813 1.79099 34.418 1.69958C33.9609 1.05036 33.1969 0.633177 32.3367 0.66599C31.0195 0.715208 30 1.8449 30 3.16208V22.9668C30 24.284 31.0195 25.4136 32.3367 25.4629C33.1969 25.4957 33.9609 25.0785 34.418 24.4293C34.4813 24.3379 34.6078 24.3238 34.6922 24.3965C35.3016 24.9285 36.1617 25.1793 37.0734 24.9402C38.1914 24.6472 38.9531 23.6113 38.9531 22.4558V22.4535C38.9531 22.3222 39.082 22.2355 39.2062 22.2801C39.6211 22.4207 40.0711 22.484 40.5422 22.4511C42.0305 22.341 43.2844 21.2371 43.582 19.7746C43.6734 19.3363 43.6711 18.9097 43.5984 18.509C43.5797 18.4082 43.6477 18.3168 43.7461 18.2957C44.8219 18.0707 45.75 17.4472 46.3711 16.5871C46.1438 16.273 45.8766 15.9894 45.5766 15.7457Z" fill="#3FE0FF"/>
<path d="M27.6633 0.66599C26.8031 0.633177 26.0391 1.05036 25.582 1.69958C25.5188 1.79099 25.3922 1.80505 25.3078 1.7324C24.6984 1.20036 23.8383 0.949583 22.9266 1.18865C21.8086 1.48161 21.0469 2.51521 21.0469 3.67068V3.67302C21.0469 3.80427 20.918 3.89099 20.7937 3.8488C20.3789 3.70583 19.9289 3.64255 19.4578 3.67771C17.9695 3.78552 16.7156 4.89177 16.418 6.35193C16.3266 6.79255 16.3289 7.21912 16.4016 7.6199C16.4203 7.71833 16.3523 7.81208 16.2539 7.83083C14.2852 8.24568 12.8086 9.99177 12.8086 12.0824C12.8086 13.4465 13.4391 14.6629 14.4234 15.4597C14.5148 15.5347 14.5148 15.673 14.4234 15.7457C14.1234 15.9894 13.8563 16.273 13.6289 16.5871C14.25 17.4472 15.1781 18.0707 16.2539 18.2957C16.3523 18.3168 16.4203 18.4082 16.4016 18.509C16.3289 18.9097 16.3266 19.3363 16.418 19.7746C16.7156 21.2371 17.9695 22.341 19.4578 22.4511C19.95 22.4863 20.4211 22.416 20.85 22.259C20.9461 22.2238 21.0492 22.2941 21.0469 22.3972C21.0469 23.1121 21.3305 23.7683 21.7922 24.2465C22.2539 24.7269 22.8938 25.0293 23.6086 25.0316C24.2602 25.034 24.8531 24.7926 25.3078 24.3965C25.3922 24.3238 25.5188 24.3379 25.582 24.4293C26.0391 25.0785 26.8031 25.4957 27.6633 25.4629C28.9805 25.4136 30 24.284 30 22.9668V3.16208C30 1.8449 28.9805 0.714974 27.6633 0.66599Z" fill="#3FE0FF"/>
<path d="M49.4387 20.1731H47.5391C47.9281 18.4504 47.3448 16.7364 46.1267 15.6032C47.105 14.6934 47.6598 13.428 47.6598 12.082C47.6598 9.90721 46.1769 7.9933 44.098 7.43432C44.1402 7.04268 44.1214 6.64846 44.042 6.25916C43.6147 4.16432 41.5166 2.79205 39.3924 3.30651C39.0842 1.01455 36.4843 -0.139273 34.6177 1.19409C33.3912 -0.221539 31.0934 -0.160367 29.9998 1.55971C28.9079 -0.157555 26.6089 -0.221539 25.3824 1.19385C23.5723 -0.105758 20.8803 0.929008 20.6005 3.3051C18.0455 2.69034 15.6184 4.79877 15.9017 7.43432C12.2825 8.40744 11.1001 13.0242 13.873 15.6032C12.654 16.7369 12.0718 18.4516 12.4606 20.1731H10.5605C9.65609 20.1731 8.91992 20.909 8.91992 21.8137V43.927C8.91992 44.8317 9.65609 45.5676 10.5605 45.5676H24.567V54.2261H20.4036C19.4991 54.2261 18.763 54.9621 18.763 55.8667V58.1636C18.763 59.0683 19.4991 59.8042 20.4036 59.8042H39.5959C40.5003 59.8042 41.2365 59.0683 41.2365 58.1636V55.8667C41.2365 54.9621 40.5003 54.2261 39.5959 54.2261H35.4324V45.5676H49.4389C50.3434 45.5676 51.0795 44.8317 51.0795 43.927V21.8137C51.0793 20.909 50.3434 20.1731 49.4387 20.1731ZM30.4684 24.7136C31.7785 25.6209 33.0024 25.2466 34.1007 24.1392C34.283 23.9554 34.2816 23.6587 34.0979 23.4764C33.9141 23.294 33.617 23.2952 33.4351 23.4792C32.3396 24.5835 31.4961 24.52 30.4684 23.493V13.9167C30.5412 13.9218 30.6139 13.9286 30.6866 13.9286C31.3416 13.9286 31.9766 13.7142 32.5041 13.3183C33.043 13.7214 33.684 13.9263 34.3269 13.9263C35.1071 13.9263 35.8873 13.6293 36.4815 13.0352C36.6645 12.8521 36.6645 12.5554 36.4815 12.3724C36.2984 12.1893 36.0017 12.1893 35.8187 12.3724C35.0984 13.0921 33.9826 13.1819 33.1639 12.641C34.007 11.4515 33.8996 9.78979 32.8355 8.72573C32.6525 8.54268 32.3558 8.54268 32.1727 8.72573C31.9897 8.90877 31.9897 9.20549 32.1727 9.38854C32.9937 10.2098 32.9945 11.546 32.1755 12.3696C32.1744 12.3705 32.1732 12.3712 32.172 12.3724C32.1711 12.3733 32.1706 12.3745 32.1697 12.3754C31.7166 12.8266 31.0951 13.0427 30.4686 12.9785V3.1612C30.4686 1.1983 32.926 0.390649 34.0341 1.96799C34.1408 2.12034 34.3074 2.22041 34.4912 2.24268C35.0799 2.3151 35.1973 1.56627 36.3903 1.56627C37.5451 1.5712 38.484 2.54198 38.4833 3.72955C38.4823 4.15729 38.9084 4.45565 39.3092 4.3094C39.931 4.0837 40.6048 4.08323 41.2088 4.28596C41.0818 7.01081 38.6398 5.56073 38.6361 6.62573C38.6352 6.8669 38.8203 7.09612 39.125 7.09612C40.7659 7.09612 41.8623 6.4312 42.1032 4.77885C42.6139 5.19088 42.9861 5.77307 43.1234 6.44666C43.1973 6.8083 43.202 7.17534 43.1373 7.53674C43.074 7.88549 43.2992 8.21643 43.6498 8.29026C45.4306 8.66526 46.7227 10.2597 46.7227 12.0817C46.7227 13.2567 46.1977 14.3552 45.2823 15.0958C45.1283 15.2203 45.0399 15.4052 45.0399 15.603C45.0399 15.8008 45.1283 15.9857 45.2823 16.1102C47.8384 18.1781 46.8017 22.2522 43.6498 22.916C43.2994 22.9896 43.0742 23.3207 43.137 23.6688C43.2516 24.3065 43.152 24.9756 42.8209 25.5742C39.8352 25.5663 41.3621 22.9999 40.2793 22.9961C40.2788 22.9961 40.2781 22.9961 40.2777 22.9961C40.0194 22.9961 39.8098 23.2049 39.8089 23.4632C39.803 25.1022 40.4525 26.1942 42.0711 26.4534C41.6312 26.7981 41.0919 27.0185 40.5087 27.0611C39.4515 27.1366 39.23 26.6629 38.758 27.0006C38.5859 27.1235 38.483 27.3231 38.483 27.5353C38.484 29.4149 36.3212 30.2634 35.0089 29.1276C35.0916 27.8109 35.7209 27.3231 37.0887 27.3231C37.7452 27.3231 37.7218 26.3878 37.111 26.3856C35.2231 26.3833 34.1445 27.2453 34.0691 29.1981C32.6084 30.9524 30.4686 29.7918 30.4686 28.0453V24.7136H30.4684ZM29.9996 29.6467C31.0944 31.3685 33.3903 31.428 34.617 30.0126C36.4269 31.3122 39.1191 30.277 39.399 27.9014C41.7329 28.4629 44.0352 26.7435 44.1158 24.3051H46.1668C46.5545 24.3051 46.8699 24.6206 46.8699 25.0082V40.7324C46.8699 41.1201 46.5545 41.4356 46.1668 41.4356H13.8324C13.4448 41.4356 13.1293 41.1201 13.1293 40.7324V25.0082C13.1293 24.6206 13.4448 24.3051 13.8324 24.3051H15.8834C15.9638 26.7365 18.2635 28.4695 20.607 27.8999C20.9152 30.1919 23.5152 31.3457 25.3817 30.0124C26.6293 31.4519 28.922 31.3415 29.9996 29.6467ZM14.7177 16.1104C15.0411 15.8489 15.0404 15.3569 14.7177 15.096C12.1616 13.0281 13.1982 8.95401 16.3501 8.29026C16.7005 8.21667 16.9257 7.88549 16.8629 7.53745C16.7483 6.89971 16.8479 6.23057 17.1791 5.63198C20.1648 5.63995 18.6378 8.20635 19.7206 8.2101C19.9838 8.2101 20.1901 7.9987 20.191 7.74299C20.1969 6.10401 19.5474 5.01182 17.9288 4.75284C18.725 4.12916 19.7469 3.98526 20.6424 4.29252C21.073 4.43971 21.5166 4.12143 21.5166 3.6712C21.5157 1.79151 23.6783 0.943539 24.9908 2.07885C24.8251 4.71557 22.4253 3.30041 22.4216 4.35041C22.4206 4.59159 22.6058 4.8208 22.9105 4.8208C24.8478 4.8208 25.858 3.88987 25.9309 2.0083C27.388 0.257524 29.5309 1.41088 29.5309 3.1612V6.4926C28.2207 5.58534 26.9968 5.95963 25.8985 7.06705C25.4623 7.50651 26.1275 8.16815 26.5641 7.72706C27.6596 6.62268 28.5031 6.6862 29.5309 7.71323V17.2886C28.8001 17.2366 28.0803 17.4473 27.4944 17.887C25.4905 16.3886 22.7565 18.0721 23.5177 18.8336C23.7008 19.0167 23.9975 19.0167 24.1805 18.8336C24.9005 18.1136 26.0164 18.0239 26.8353 18.565C25.4251 20.5546 27.062 23.245 27.8265 22.4803C28.0095 22.2972 28.0095 22.0005 27.8265 21.8174C27.0055 20.9962 27.0048 19.66 27.8237 18.8364C27.8248 18.8355 27.826 18.8348 27.8272 18.8336C27.8281 18.8327 27.8286 18.8315 27.8295 18.8306C28.2826 18.3792 28.9037 18.1631 29.5306 18.2273V28.0446C29.5306 30.0028 27.077 30.8196 25.9648 29.2375C25.7413 28.9185 25.292 28.8642 24.999 29.1203C23.6382 30.311 21.515 29.3292 21.5162 27.4762C21.5171 27.0475 21.0908 26.7508 20.6902 26.8964C20.0837 27.1162 19.4101 27.1277 18.7906 26.9198C18.9179 24.1889 21.3596 25.6628 21.3634 24.58C21.3643 24.3389 21.1791 24.1096 20.8745 24.1096C19.2336 24.1096 18.1372 24.7746 17.8962 26.4269C17.0598 25.7521 16.6782 24.6967 16.8624 23.669C16.9257 23.3203 16.7005 22.9893 16.3498 22.9155C13.1998 22.2529 12.1606 18.179 14.7177 16.1104ZM39.5956 55.1636C39.9833 55.1636 40.2987 55.4791 40.2987 55.8667V58.1636C40.2987 58.5513 39.9833 58.8667 39.5956 58.8667H20.4036C20.0159 58.8667 19.7005 58.5513 19.7005 58.1636V55.8667C19.7005 55.4791 20.0159 55.1636 20.4036 55.1636H39.5956ZM25.5043 54.2261V45.5676H34.4947V54.2261H25.5043ZM50.1418 43.9267C50.1418 44.3144 49.8263 44.6299 49.4387 44.6299H10.5605C10.1729 44.6299 9.85742 44.3144 9.85742 43.9267V21.8135C9.85742 21.4258 10.1729 21.1103 10.5605 21.1103H12.7749C13.2123 22.0673 13.9552 22.8658 14.8899 23.3674H13.8324C12.928 23.3674 12.1918 24.1033 12.1918 25.008V40.7322C12.1918 41.6369 12.928 42.3728 13.8324 42.3728H46.1668C47.0712 42.3728 47.8074 41.6369 47.8074 40.7322V25.008C47.8074 24.1033 47.0712 23.3674 46.1668 23.3674H45.1093C46.044 22.8658 46.787 22.0673 47.2243 21.1103H49.4387C49.8263 21.1103 50.1418 21.4258 50.1418 21.8135V43.9267Z" fill="#020202"/>
<path d="M21.4098 34.9996H16.5859C15.6815 34.9996 14.9453 35.7356 14.9453 36.6403V38.8668C14.9453 39.7715 15.6815 40.5074 16.5859 40.5074H21.4098C22.3143 40.5074 23.0505 39.7715 23.0505 38.8668V36.6403C23.0505 35.7356 22.3143 34.9996 21.4098 34.9996ZM22.113 38.8668C22.113 39.2545 21.7975 39.5699 21.4098 39.5699H16.5859C16.1983 39.5699 15.8828 39.2545 15.8828 38.8668V36.6403C15.8828 36.2526 16.1983 35.9371 16.5859 35.9371H21.4098C21.7975 35.9371 22.113 36.2526 22.113 36.6403V38.8668Z" fill="#020202"/>
<path d="M25.9473 36.6403V38.8668C25.9473 39.7715 26.6834 40.5074 27.5879 40.5074H32.4118C33.3162 40.5074 34.0524 39.7715 34.0524 38.8668V36.6403C34.0524 35.7356 33.3162 34.9996 32.4118 34.9996H27.5879C26.6834 34.9996 25.9473 35.7356 25.9473 36.6403ZM26.8848 36.6403C26.8848 36.2526 27.2002 35.9371 27.5879 35.9371H32.4118C32.7995 35.9371 33.1149 36.2526 33.1149 36.6403V38.8668C33.1149 39.2545 32.7995 39.5699 32.4118 39.5699H27.5879C27.2002 39.5699 26.8848 39.2545 26.8848 38.8668V36.6403Z" fill="#020202"/>
<path d="M38.6328 40.5074H43.457C44.3614 40.5074 45.0976 39.7715 45.0976 38.8668V36.6403C45.0976 35.7356 44.3614 34.9996 43.457 34.9996H38.6328C37.7284 34.9996 36.9922 35.7356 36.9922 36.6403V38.8668C36.9922 39.7713 37.7284 40.5074 38.6328 40.5074ZM37.9297 36.6403C37.9297 36.2526 38.2452 35.9371 38.6328 35.9371H43.457C43.8446 35.9371 44.1601 36.2526 44.1601 36.6403V38.8668C44.1601 39.2545 43.8446 39.5699 43.457 39.5699H38.6328C38.2452 39.5699 37.9297 39.2545 37.9297 38.8668V36.6403Z" fill="#020202"/>
<path d="M36.7487 22.631C37.0075 22.631 37.2175 22.421 37.2175 22.1622C37.2175 21.9035 37.0075 21.6935 36.7487 21.6935C36.0827 21.6935 35.5202 21.2463 35.3427 20.6367C36.4141 20.3952 37.2175 19.4376 37.2175 18.2943C37.2175 18.0356 37.0075 17.8256 36.7487 17.8256C36.49 17.8256 36.28 18.0356 36.28 18.2943C36.28 19.1022 35.6228 19.7594 34.8149 19.7594C34.007 19.7594 33.3496 19.1022 33.3496 18.2943C33.3496 18.0356 33.1396 17.8256 32.8809 17.8256C32.6221 17.8256 32.4121 18.0356 32.4121 18.2943C32.4121 19.4727 33.2655 20.4538 34.3865 20.6566C34.5895 21.7774 35.5703 22.631 36.7487 22.631Z" fill="#020202"/>
<path d="M35.5573 2.35583C35.2986 2.35583 35.0886 2.56583 35.0886 2.82458C35.0886 3.63248 34.4312 4.28966 33.6233 4.28966C32.8154 4.28966 32.1582 3.63248 32.1582 2.82458C32.1582 2.20513 31.2207 2.20443 31.2207 2.82458C31.2207 4.00302 32.0741 4.98388 33.1948 5.18685C33.3976 6.30787 34.3787 7.16146 35.5571 7.16146C35.8159 7.16146 36.0259 6.95146 36.0259 6.69271C36.0259 6.43396 35.8159 6.22396 35.5571 6.22396C34.891 6.22396 34.3283 5.77677 34.1509 5.16716C36.0038 4.74951 36.5122 2.35583 35.5573 2.35583Z" fill="#020202"/>
<path d="M44.0104 15.2882C44.2691 15.2882 44.4791 15.0782 44.4791 14.8195C44.4791 13.8295 41.995 14.4093 41.6484 16.3251C39.7309 16.672 39.1516 19.1561 40.1427 19.1561C40.4015 19.1561 40.6115 18.9461 40.6115 18.6874C40.6115 18.0213 41.0587 17.4585 41.6683 17.2811C41.9097 18.3527 42.8673 19.1561 44.0106 19.1561C44.6298 19.1561 44.6308 18.2186 44.0106 18.2186C43.2027 18.2186 42.5456 17.5612 42.5456 16.7533C42.5456 15.9454 43.2025 15.2882 44.0104 15.2882Z" fill="#020202"/>
<path d="M45.5994 11.106C46.0372 10.6647 45.3688 10.0066 44.9338 10.4458C43.8648 11.5234 43.0182 11.519 41.9523 10.4458C41.5166 10.0059 40.8503 10.6663 41.2871 11.1062C42.6791 12.5078 44.1235 12.5938 45.5994 11.106Z" fill="#020202"/>
<path d="M37.8145 14.8394C37.8152 14.8394 37.8159 14.8394 37.8166 14.8394C38.0754 14.8385 38.2844 14.6276 38.2832 14.3688C38.28 13.6153 38.4445 13.0671 38.7719 12.7394C39.5915 11.9191 40.8588 12.6558 40.8618 11.7935C40.8628 11.5348 40.6535 11.3241 40.3947 11.3231C39.371 11.328 38.6189 11.5662 38.1089 12.0766C37.5982 12.5873 37.3418 13.3598 37.3457 14.3723C37.3469 14.6309 37.5565 14.8394 37.8145 14.8394Z" fill="#020202"/>
<path d="M23.2502 13.3809C23.509 13.3809 23.719 13.1709 23.719 12.9121C23.719 12.1042 24.3761 11.447 25.184 11.447C25.9919 11.447 26.6493 12.1042 26.6493 12.9121C26.6493 13.1709 26.8593 13.3809 27.1181 13.3809C28.1083 13.3809 27.5283 10.8965 25.6125 10.5498C25.2642 8.6261 22.7817 8.05774 22.7817 9.04422C22.7817 9.30297 22.9917 9.51297 23.2504 9.51297C23.9165 9.51297 24.479 9.96016 24.6565 10.5698C22.8023 10.9874 22.2975 13.3809 23.2502 13.3809Z" fill="#020202"/>
<path d="M24.4403 28.8506C24.699 28.8506 24.909 28.6406 24.909 28.3819C24.909 27.574 25.5665 26.9168 26.3743 26.9168C27.1822 26.9168 27.8394 27.574 27.8394 28.3819C27.8394 29.0013 28.7769 29.002 28.7769 28.3819C28.7769 27.2034 27.9236 26.2226 26.8028 26.0196C26.4545 24.0956 23.9718 23.5277 23.9718 24.5137C23.9718 24.7725 24.1818 24.9825 24.4405 24.9825C25.1066 24.9825 25.6693 25.4297 25.8468 26.0393C23.9938 26.4567 23.4854 28.8506 24.4403 28.8506Z" fill="#020202"/>
<path d="M15.9885 12.9876C16.7964 12.9876 17.4536 13.645 17.4536 14.4529C17.4536 15.2608 16.7964 15.918 15.9885 15.918C15.3693 15.918 15.3684 16.8555 15.9885 16.8555C17.167 16.8555 18.1478 16.0019 18.3505 14.8811C19.4716 14.6783 20.3249 13.6973 20.3249 12.5188C20.3249 12.2601 20.1149 12.0501 19.8562 12.0501C19.5974 12.0501 19.3874 12.2601 19.3874 12.5188C19.3874 13.1849 18.9402 13.7476 18.3306 13.9251C17.913 12.0714 15.5195 11.5649 15.5195 12.5188C15.5198 12.7776 15.7295 12.9876 15.9885 12.9876Z" fill="#020202"/>
<path d="M15.0658 20.7606C17.2101 18.5987 17.9402 21.5291 18.7101 20.763C18.8938 20.5806 18.8948 20.2839 18.7124 20.1001C17.3205 18.6986 15.8763 18.6126 14.4004 20.1001C13.9635 20.5405 14.6299 21.2003 15.0658 20.7606Z" fill="#020202"/>
<path d="M19.625 19.8829C21.6927 19.8829 22.6602 18.8146 22.6522 16.8335C22.6508 16.5747 22.4349 16.364 22.1813 16.3666C21.9226 16.3675 21.7135 16.5785 21.7147 16.8372C21.7213 18.3759 21.0908 18.9452 19.6255 18.9452C18.9744 18.9454 18.9786 19.8829 19.625 19.8829Z" fill="#020202"/>
</svg>
