<svg width="60" height="60" viewBox="0 0 60 60" fill="none" xmlns="http://www.w3.org/2000/svg">
<path d="M51.0115 29.4772L47.0601 23.9508V20.2899C47.0601 10.4954 39.7101 2.41179 30.225 1.25632C29.3721 1.15226 28.5047 1.10304 27.6194 1.11522C17.318 1.25515 8.88326 9.65702 8.70983 19.958C8.64889 23.5782 9.58709 26.9424 11.2671 29.8407C12.4315 31.8495 13.4817 33.9226 14.4016 36.0544L16.2633 40.3686C16.6101 41.1748 16.8726 42.0092 17.0484 42.8647C17.2265 43.7178 17.3156 44.5897 17.3156 45.4662C17.3156 48.2506 16.4133 50.96 14.7422 53.1866L11.8758 57.0116C11.2945 57.785 11.8453 58.8866 12.8133 58.8866H33.2742C33.9213 58.8866 34.4461 58.3618 34.4461 57.7147V50.6998L34.4437 48.2813C34.4437 47.6344 34.9687 47.1094 35.6156 47.1094H39.6422C40.7226 47.1094 41.7281 46.554 42.3023 45.6399L43.7273 43.3782C44.8172 41.6485 45.6492 39.7852 46.2094 37.8423C46.4297 37.0805 46.6078 36.3094 46.7414 35.529C46.9523 34.3149 47.0601 33.0774 47.0601 31.8352V31.8329H49.8C51.0117 31.8329 51.7165 30.463 51.0115 29.4772Z" fill="#0889A5"/>
<path d="M51.0115 29.4771L47.0602 23.9508V20.2898C47.0602 10.4953 39.7102 2.41169 30.225 1.25623C20.7422 2.41169 13.3945 10.4953 13.3945 20.2898C13.3945 23.7225 14.2936 26.917 15.8693 29.6922C17.0447 31.7622 18.1474 33.8726 19.0905 36.0583L20.9505 40.3687C21.2974 41.175 21.5599 42.0093 21.7357 42.8648C21.9138 43.7179 22.0029 44.5898 22.0029 45.4664C22.0029 48.2508 21.1005 50.9601 19.4295 53.1867L16.563 57.0117C15.9818 57.7851 16.5326 58.8867 17.5005 58.8867H33.274C33.9211 58.8867 34.4459 58.3619 34.4459 57.7148V50.7L34.4438 48.2812C34.4438 47.6344 34.9688 47.1094 35.6156 47.1094H39.6422C40.7227 47.1094 41.7281 46.5539 42.3023 45.6398L43.7274 43.3781C44.8172 41.6484 45.6492 39.7851 46.2094 37.8422C46.4297 37.0804 46.6078 36.3093 46.7414 35.5289C46.9523 34.3148 47.0602 33.0773 47.0602 31.8351V31.8328H49.8C51.0117 31.8328 51.7165 30.4629 51.0115 29.4771Z" fill="url(#paint0_linear_125_3953)"/>
<path d="M40.0482 22.2895C41.2473 22.2895 42.2195 21.3174 42.2195 20.1183C42.2195 18.9191 41.2473 17.947 40.0482 17.947C38.8491 17.947 37.877 18.9191 37.877 20.1183C37.877 21.3174 38.8491 22.2895 40.0482 22.2895Z" fill="#0889A5"/>
<path d="M22.4374 30.1851C23.7038 30.1851 24.7303 29.1586 24.7303 27.8923C24.7303 26.6259 23.7038 25.5994 22.4374 25.5994C21.1711 25.5994 20.1445 26.6259 20.1445 27.8923C20.1445 29.1586 21.1711 30.1851 22.4374 30.1851Z" fill="#02F5F8"/>
<path d="M33.2167 8.67819C34.483 8.67819 35.5096 7.65163 35.5096 6.3853C35.5096 5.11897 34.483 4.09241 33.2167 4.09241C31.9504 4.09241 30.9238 5.11897 30.9238 6.3853C30.9238 7.65163 31.9504 8.67819 33.2167 8.67819Z" fill="#02F5F8"/>
<path d="M16.4218 24.7038C17.6881 24.7038 18.7147 23.6773 18.7147 22.4109C18.7147 21.1446 17.6881 20.118 16.4218 20.118C15.1555 20.118 14.1289 21.1446 14.1289 22.4109C14.1289 23.6773 15.1555 24.7038 16.4218 24.7038Z" fill="#02F5F8"/>
<path d="M28.5312 44.2769C29.7975 44.2769 30.8241 43.2504 30.8241 41.9841C30.8241 40.7177 29.7975 39.6912 28.5312 39.6912C27.2648 39.6912 26.2383 40.7177 26.2383 41.9841C26.2383 43.2504 27.2648 44.2769 28.5312 44.2769Z" fill="#02F5F8"/>
<path d="M40.0477 17.4773C38.693 17.4773 37.5727 18.5062 37.425 19.8211H34.2844V17.8969C34.2844 17.639 34.0758 17.4281 33.8156 17.4281C33.5578 17.4281 33.3469 17.639 33.3469 17.8969V30.0187H28.9992V27.8929C28.9992 27.6328 28.7906 27.4242 28.5305 27.4242C28.2727 27.4242 28.0617 27.6328 28.0617 27.8929V35.0953H25.5469C25.2867 35.0953 25.0781 35.3039 25.0781 35.564C25.0781 35.8219 25.2867 36.0328 25.5469 36.0328H28.0617V39.2648C26.7633 39.4898 25.7695 40.6219 25.7695 41.9836C25.7695 43.507 27.0094 44.7445 28.5305 44.7445C30.0539 44.7445 31.2938 43.507 31.2938 41.9836C31.2938 40.6219 30.3 39.4898 28.9992 39.2648V30.9562H37.9055C38.1633 30.9562 38.3742 30.7453 38.3742 30.4875C38.3742 30.2297 38.1633 30.0187 37.9055 30.0187H34.2844V20.7586H37.4906C37.7789 21.9047 38.8148 22.7578 40.0477 22.7578C41.5031 22.7578 42.6891 21.5742 42.6891 20.1187C42.6891 18.6633 41.5031 17.4773 40.0477 17.4773ZM30.3563 41.9836C30.3563 42.989 29.5359 43.807 28.5305 43.807C27.525 43.807 26.707 42.989 26.707 41.9836C26.707 40.9781 27.525 40.1601 28.5305 40.1601C29.5359 40.1601 30.3563 40.9781 30.3563 41.9836ZM40.0477 21.8203C39.1945 21.8203 38.4867 21.1875 38.3648 20.3672C38.3766 20.3022 38.3834 20.2516 38.3461 20.1398V20.1187C38.3461 19.1789 39.1102 18.4148 40.0477 18.4148C40.9875 18.4148 41.7516 19.1789 41.7516 20.1187C41.7516 21.0562 40.9875 21.8203 40.0477 21.8203Z" fill="#020202"/>
<path d="M51.3933 29.2055C47.3381 23.5357 47.5284 23.8941 47.5284 23.5758V20.5313C47.4888 20.3414 48.1266 12.7777 41.7722 6.41486C34.1588 -1.20467 21.7831 -1.33475 14.0456 6.3469C8.07563 12.2679 6.76102 20.9599 9.84563 28.0664C10.3931 28.886 15.5789 39.3007 16.4597 42.3844C17.3663 45.9012 16.6725 49.8368 14.3667 52.9055L11.498 56.7305C11.123 57.2321 11.0644 57.8883 11.3433 58.4485C11.6245 59.0086 12.187 59.3555 12.8128 59.3555H33.2738C34.1784 59.3555 34.9144 58.6196 34.9144 57.7149C34.9137 55.2645 34.9125 50.5852 34.912 48.2813C34.912 47.9044 35.2174 47.5781 35.6152 47.5781H39.6417C42.3174 47.5781 43.024 45.1432 43.5417 44.5524C43.5464 44.55 43.5488 44.5477 43.5488 44.543C45.9961 40.8101 47.4359 36.747 47.5191 32.3016H49.7995C51.4071 32.3016 52.3081 30.481 51.3933 29.2055ZM49.7995 31.3641H47.0597C46.8347 31.3641 46.6449 31.5235 46.6003 31.7391C46.4468 32.6595 46.7515 34.5741 45.6113 38.1961C42.8808 39.3328 39.7706 38.7188 37.68 36.6281C37.4972 36.443 37.1995 36.443 37.0167 36.6281C36.8339 36.811 36.8339 37.1063 37.0167 37.2891C38.5917 38.8641 40.6777 39.6985 42.8081 39.6985C43.612 39.6985 44.4253 39.5789 45.2175 39.3352C44.7731 40.5059 44.2643 41.5641 43.6097 42.6727C41.7752 45.7299 41.3077 46.6406 39.6417 46.6406H35.6152C35.1769 46.6406 34.7667 46.8117 34.455 47.1211C34.1456 47.4305 33.9745 47.843 33.9745 48.2813C33.9755 50.5728 33.9776 55.8371 33.9769 57.7149C33.9769 58.1016 33.6605 58.418 33.2738 58.418H12.8128C12.5386 58.418 12.3042 58.2727 12.1824 58.0289C11.4063 56.4767 18.1118 53.0388 17.7675 44.7844C17.7239 43.8122 17.4792 42.4149 17.3855 42.2274C16.4316 38.3597 11.0259 28.3852 11.0152 28.3617H15.9534V33.0821C15.9534 33.3422 16.1644 33.5508 16.4222 33.5508C16.6824 33.5508 16.8909 33.3422 16.8909 33.0821V28.3617H19.7175C19.9425 29.6602 21.0745 30.6539 22.4363 30.6539C23.9597 30.6539 25.1995 29.4141 25.1995 27.893C25.1995 26.3696 23.9597 25.1321 22.4363 25.1321C21.0745 25.1321 19.9425 26.1235 19.7175 27.4242H10.5933C8.31165 21.9443 8.76282 15.5419 12.0652 10.3196H15.9534V19.6922C14.655 19.9149 13.6613 21.0492 13.6613 22.411C13.6613 23.9344 14.9011 25.1719 16.4222 25.1719C17.9456 25.1719 19.1831 23.9344 19.1831 22.411C19.1831 21.0492 18.1917 19.9149 16.8909 19.6922V16.943H23.8659C24.1261 16.943 24.3347 16.7321 24.3347 16.4742C24.3347 16.2141 24.1261 16.0055 23.8659 16.0055H21.255C21.3183 15.9258 21.3581 15.825 21.3581 15.7149V7.08049C21.3581 6.82033 21.1472 6.61174 20.8894 6.61174C20.6292 6.61174 20.4206 6.82033 20.4206 7.08049V15.7149C20.4206 15.825 20.4605 15.9258 20.5238 16.0055H16.8909V10.3196H18.6066C18.8644 10.3196 19.0753 10.1086 19.0753 9.8508C19.0753 9.59064 18.8644 9.38205 18.6066 9.38205H12.7003C15.7535 5.14385 20.3011 2.50713 25.0777 1.7951V21.3961C25.0777 21.6539 25.2863 21.8649 25.5464 21.8649C25.8042 21.8649 26.0152 21.6539 26.0152 21.3961V6.83205C26.1328 6.87119 25.9238 6.84588 30.4988 6.85315C30.7214 8.15393 31.8558 9.14768 33.2175 9.14768C34.7409 9.14768 35.9784 7.90783 35.9784 6.3844C35.9784 4.8633 34.7409 3.62346 33.2175 3.62346C31.8558 3.62346 30.7214 4.61721 30.4988 5.91565C25.9106 5.92525 26.1502 5.89408 26.0152 5.93908V1.68002C26.4785 1.63455 26.9794 1.58205 27.8808 1.58205C27.9317 1.59658 37.6777 1.13393 43.537 10.1836H29.9456C29.6855 10.1836 29.4769 10.3922 29.4769 10.6524C29.4769 10.9102 29.6855 11.1211 29.9456 11.1211H33.3464V14.9836C33.3464 15.2438 33.5574 15.4524 33.8152 15.4524C34.0753 15.4524 34.2839 15.2438 34.2839 14.9836V11.1211H44.1066C46.9299 16.0849 46.5579 20.6281 46.5909 20.8828V23.5758C46.6029 23.8048 46.5485 24.0661 46.6753 24.218C46.6753 24.2236 50.6259 29.7471 50.6292 29.7516C51.1111 30.4224 50.6353 31.3641 49.7995 31.3641ZM20.6128 27.893C20.6128 26.8875 21.4308 26.0696 22.4363 26.0696C23.4441 26.0696 24.262 26.8875 24.262 27.893C24.262 28.8985 23.4441 29.7164 22.4363 29.7164C21.4308 29.7164 20.6128 28.8985 20.6128 27.893ZM16.4222 20.5875C17.4277 20.5875 18.2456 21.4055 18.2456 22.411C18.2456 23.4164 17.4277 24.2344 16.4222 24.2344C15.4167 24.2344 14.5988 23.4164 14.5988 22.411C14.5988 21.4055 15.4167 20.5875 16.4222 20.5875ZM31.3941 6.3844C31.3941 5.37893 32.212 4.56096 33.2175 4.56096C34.223 4.56096 35.0409 5.37893 35.0409 6.3844C35.0409 7.39221 34.223 8.21018 33.2175 8.21018C32.212 8.21018 31.3941 7.39221 31.3941 6.3844Z" fill="#020202"/>
<defs>
<linearGradient id="paint0_linear_125_3953" x1="32.4904" y1="30.2762" x2="53.2414" y2="38.2877" gradientUnits="userSpaceOnUse">
<stop stop-color="#00D8D8"/>
<stop offset="1" stop-color="#4F9D9C"/>
</linearGradient>
</defs>
</svg>
