<svg width="61" height="60" viewBox="0 0 61 60" fill="none" xmlns="http://www.w3.org/2000/svg">
<path d="M38.6147 2.7718V53.7873C38.6147 54.4325 38.089 54.9582 37.4439 54.9582H1.64936C1.0042 54.9582 0.478516 54.4325 0.478516 53.7873V2.7718C0.478516 2.12664 1.0042 1.60095 1.64936 1.60095H37.4439C38.089 1.60095 38.6147 2.12664 38.6147 2.7718Z" fill="#0AD4E1" fill-opacity="0.83"/>
<path d="M38.6135 2.7718V53.2855H3.34468C2.69951 53.2855 2.17383 52.7599 2.17383 52.1147V1.60095H37.4426C38.0878 1.60095 38.6135 2.12664 38.6135 2.7718Z" fill="#40C4DF"/>
<path d="M34.1462 6.18872C34.7914 6.18872 35.3171 6.71441 35.3171 7.35957V49.1756C35.3171 49.8207 34.7914 50.3464 34.1462 50.3464H4.9228C4.27764 50.3464 3.75195 49.8207 3.75195 49.1756V7.35957C3.75195 6.71441 4.27764 6.18872 4.9228 6.18872H34.1462Z" fill="url(#paint0_linear_125_3967)"/>
<path d="M34.1457 6.18872C34.7909 6.18872 35.3166 6.71441 35.3166 7.35957V46.9772H8.31538C7.67022 46.9772 7.14453 46.4516 7.14453 45.8064V6.18872H34.1457Z" fill="url(#paint1_linear_125_3967)"/>
<path d="M27.2887 1.7443V6.64275C27.2887 7.35959 26.7152 7.93307 25.9984 7.93307H13.597C12.8801 7.93307 12.3066 7.35959 12.3066 6.64275V1.7443C12.3066 1.02746 12.8801 0.453979 13.597 0.453979H25.9984C26.6913 0.453979 27.2887 1.05135 27.2887 1.7443Z" fill="#D8D6D7"/>
<path d="M27.2875 1.7443V6.26043H15.2923C14.5754 6.26043 14.002 5.68695 14.002 4.97011V0.453979H25.9972C26.6901 0.453979 27.2875 1.05135 27.2875 1.7443Z" fill="white"/>
<path d="M22.9396 6.40385V6.73838C22.9396 6.85785 22.9157 6.97733 22.8918 7.0968C22.7484 7.5747 22.2944 7.93312 21.7448 7.93312H17.8022C17.1331 7.93312 16.6074 7.40743 16.6074 6.73838V6.40385C16.6074 5.85427 16.9658 5.40027 17.4437 5.2569C17.5632 5.233 17.6588 5.20911 17.8022 5.20911H21.7448C22.4139 5.20911 22.9396 5.75869 22.9396 6.40385Z" fill="#0AD4E1" fill-opacity="0.83"/>
<path d="M22.9387 6.40385V6.73838C22.9387 6.85785 22.9148 6.97733 22.8909 7.0968H18.6615C17.9925 7.0968 17.4668 6.57111 17.4668 5.90206V5.2569C17.5863 5.233 17.6819 5.20911 17.8252 5.20911H21.7679C22.413 5.20911 22.9387 5.75869 22.9387 6.40385Z" fill="#00FFFF"/>
<path d="M59.4978 42.9869V47.1446C59.4978 47.7658 58.996 48.2676 58.3747 48.2676H55.8419C55.6268 49.0084 55.3162 49.7491 54.9339 50.4421L56.726 52.2342C57.1561 52.6643 57.1561 53.3811 56.726 53.8112L54.217 56.3202L53.7869 56.7503C53.3568 57.1804 52.64 57.1804 52.2099 56.7503L51.1585 55.6989L50.4178 54.9582C49.7248 55.3405 48.9841 55.6272 48.2433 55.8662V58.399C48.2433 59.0203 47.7415 59.5221 47.1203 59.5221H42.9865C42.3652 59.5221 41.8634 59.0203 41.8634 58.399V55.8662H41.8395C41.6961 55.8184 41.5528 55.7706 41.4094 55.7228C40.8359 55.5317 40.2624 55.2688 39.7129 54.9821L38.3508 56.3441L37.9207 56.7742C37.4906 57.2043 36.7738 57.2043 36.3437 56.7742L33.4046 53.8351C32.9745 53.405 32.9745 52.6882 33.4046 52.2581L35.1967 50.4659C34.8383 49.8208 34.5755 49.1756 34.3604 48.4827H31.7559C31.1346 48.4827 30.6328 47.9809 30.6328 47.3596V43.2019C30.6328 42.5806 31.1346 42.0788 31.7559 42.0788H34.2409C34.456 41.2664 34.7905 40.4779 35.1967 39.7133L33.4046 37.9211C32.9745 37.491 32.9745 36.7742 33.4046 36.3441L36.3437 33.405C36.7738 32.9749 37.4906 32.9749 37.9207 33.405L38.3508 33.8351L39.7129 35.1971C40.4058 34.8148 41.1227 34.5281 41.8634 34.313H41.8873V31.7802C41.8873 31.1589 42.3891 30.6571 43.0103 30.6571H47.1681C47.7893 30.6571 48.2911 31.1589 48.2911 31.7802V34.2891C49.0319 34.5042 49.7726 34.8148 50.4655 35.1971L51.2063 34.4564L52.2577 33.405C52.6878 32.9749 53.4046 32.9749 53.8347 33.405L54.2648 33.8351L56.7738 36.3202C57.2039 36.7503 57.2039 37.4671 56.7738 37.8972L54.9817 39.6894C55.364 40.3823 55.6507 41.0992 55.8897 41.8638H58.4225C58.996 41.8638 59.4978 42.3656 59.4978 42.9869Z" fill="#01FDFD" fill-opacity="0.99"/>
<path d="M59.4989 42.9869V47.1446C59.4989 47.7659 58.9972 48.2677 58.3759 48.2677H55.843C55.628 49.0084 55.3173 49.7492 54.935 50.4421L56.7271 52.2342C57.1572 52.6643 57.1572 53.3812 56.7271 53.8113L54.2182 56.3202L53.7881 56.7504C53.358 57.1805 52.6411 57.1805 52.211 56.7504L51.1596 55.699L50.4189 54.9582C49.7259 55.3406 48.9852 55.6273 48.2445 55.8662V58.3991C48.2445 59.0204 47.7427 59.5222 47.1214 59.5222H45.8789C45.0187 59.5222 44.3018 58.8292 44.3018 57.9451V56.7504C44.3018 56.5592 44.1823 56.3919 43.9912 56.3202C43.4655 56.153 42.9159 55.914 42.4141 55.6512C42.2469 55.5556 42.0557 55.6034 41.9123 55.7468L41.8167 55.8424C41.6734 55.7946 41.53 55.7468 41.3866 55.699C40.8132 55.5078 40.2397 55.245 39.6901 54.9582L38.3281 56.3202L35.8191 53.8113C35.389 53.3812 35.389 52.6643 35.8191 52.2342L37.3723 50.6811C37.5157 50.5377 37.5396 50.3465 37.4679 50.1793C37.2289 49.7253 37.0378 49.2474 36.8705 48.7695C36.7988 48.6022 36.6316 48.4827 36.4404 48.4827H34.6005C33.7403 48.4827 33.0234 47.7898 33.0234 46.9057V43.202C33.0234 42.5807 33.5252 42.0789 34.1465 42.0789H36.297C36.4882 42.0789 36.6555 41.9355 36.7271 41.7683C36.9183 41.1709 37.1572 40.5735 37.444 40.024C37.5396 39.8567 37.4918 39.6416 37.3723 39.4983L35.8191 37.9451C35.389 37.515 35.389 36.7981 35.8191 36.368L38.3281 33.883L39.6901 35.245C40.3831 34.8627 41.0999 34.5759 41.8406 34.3609L41.9601 34.4803C42.0796 34.5998 42.2469 34.6237 42.3902 34.552C42.9159 34.2892 43.4655 34.0502 44.0151 33.883C44.2062 33.8113 44.3257 33.644 44.3257 33.4529V31.6846C44.3257 31.3023 44.4691 30.9678 44.6841 30.705H47.1453C47.7666 30.705 48.2684 31.2067 48.2684 31.828V34.2892C49.0091 34.5042 49.7498 34.8149 50.4428 35.1972L51.1835 34.4564L52.2349 33.4051C52.665 32.975 53.3819 32.975 53.812 33.4051L54.2421 33.8352L56.751 36.3202C57.1811 36.7504 57.1811 37.4672 56.751 37.8973L54.9589 39.6894C55.3412 40.3824 55.628 41.0992 55.8669 41.8639H58.3998C58.9972 41.8639 59.4989 42.3657 59.4989 42.9869Z" fill="url(#paint2_linear_125_3967)"/>
<path d="M48.6988 48.7216C46.6916 50.7288 43.418 50.7288 41.4108 48.7216C39.4037 46.7144 39.3798 43.4647 41.4108 41.4337C43.418 39.4265 46.6677 39.4026 48.6988 41.4337C50.7059 43.4408 50.7059 46.6905 48.6988 48.7216Z" fill="#0AD4E1" fill-opacity="0.83"/>
<path d="M40.7413 40.7407C38.3518 43.1302 38.3518 47.0012 40.7413 49.3907C43.1308 51.7801 47.0018 51.7801 49.3674 49.3907C51.7569 47.0012 51.7569 43.1302 49.3674 40.7407C46.9779 38.3512 43.1308 38.3512 40.7413 40.7407ZM48.6983 48.7216C46.6912 50.7288 43.4176 50.7288 41.4104 48.7216C39.4032 46.7144 39.3793 43.4647 41.4104 41.4337C43.4176 39.4265 46.6673 39.4026 48.6983 41.4337C50.7055 43.4408 50.7055 46.6905 48.6983 48.7216Z" fill="#020202"/>
<path d="M58.3751 41.3859H56.1768C55.9857 40.8363 55.7706 40.3106 55.5078 39.7849L57.0609 38.2318C57.6822 37.6105 57.6822 36.6069 57.0609 35.9618L54.1219 33.0227C53.5006 32.4014 52.4731 32.4014 51.8518 33.0227L50.2987 34.5759C49.7969 34.313 49.2473 34.098 48.6977 33.9068V31.7324C48.6977 30.8483 47.9809 30.1314 47.0968 30.1314H42.9869C42.1027 30.1314 41.3859 30.8483 41.3859 31.7324V33.9068C40.8363 34.098 40.3106 34.313 39.7849 34.5759L39.092 33.8829V2.7718C39.092 1.8638 38.3513 1.12306 37.4432 1.12306H27.6702C27.4552 0.454002 26.81 0 26.0932 0H13.5006C12.7599 0 12.1386 0.477897 11.9235 1.12306H1.64875C0.740741 1.12306 0 1.8638 0 2.7718V53.7873C0 54.6953 0.740741 55.4361 1.64875 55.4361H34.3369L35.9857 57.0848C36.2963 57.3955 36.6786 57.5627 37.1087 57.5627C37.5388 57.5627 37.945 57.3955 38.2318 57.0848L39.7849 55.5317C40.2867 55.7945 40.8363 56.0096 41.3859 56.2007V58.399C41.3859 59.2832 42.1027 60 42.9869 60H47.1446C48.0287 60 48.7455 59.2832 48.7455 58.399V56.2007C49.2951 56.0096 49.8447 55.7945 50.3465 55.5317L51.8996 57.0848C52.5209 57.7061 53.5484 57.7061 54.1697 57.0848L57.1087 54.1458C57.73 53.5245 57.73 52.497 57.1087 51.8757L55.5556 50.3226C55.8184 49.7969 56.0335 49.2712 56.2246 48.7216H58.4229C59.307 48.7216 60.0239 48.0048 60.0239 47.1207V42.963C59.9761 42.1027 59.2593 41.3859 58.3751 41.3859ZM27.7658 2.07885H37.4432C37.8256 2.07885 38.1362 2.38949 38.1362 2.7718V32.951C37.8495 32.7121 37.491 32.5687 37.1087 32.5687C36.2724 32.5687 35.8901 33.1422 35.7945 33.2139V7.35962C35.7945 6.45161 35.0538 5.71087 34.1458 5.71087H27.7419V2.07885H27.7658ZM12.7838 1.64875C12.7838 1.26643 13.1183 0.9319 13.5006 0.9319H26.0932C26.4994 0.9319 26.81 1.26643 26.81 1.64875V6.73835C26.81 7.14456 26.4994 7.4552 26.0932 7.4552H23.2736C23.3453 7.31183 23.3931 7.14456 23.417 6.9773H25.0896C25.687 6.9773 26.1649 6.4994 26.1649 5.90203V2.50896C26.1649 1.91159 25.687 1.43369 25.0896 1.43369H14.5281C13.9307 1.43369 13.4528 1.91159 13.4528 2.50896V5.90203C13.4528 6.4994 13.9307 6.9773 14.5281 6.9773H16.2007C16.2246 7.14456 16.2724 7.31183 16.3441 7.4552H13.5006C13.1183 7.4552 12.7838 7.14456 12.7838 6.73835V1.64875ZM21.7443 4.73118H17.8256C17.037 4.73118 16.368 5.28076 16.2007 6.0215H14.5042C14.4325 6.0215 14.3847 5.97371 14.3847 5.90203V2.50896C14.3847 2.43728 14.4325 2.38949 14.5042 2.38949H25.0657C25.1374 2.38949 25.1852 2.43728 25.1852 2.50896V5.90203C25.1852 5.97371 25.1374 6.0215 25.0657 6.0215H23.3692C23.2019 5.28076 22.5329 4.73118 21.7443 4.73118ZM22.4612 6.40382V6.73835C22.4612 6.81004 22.4373 6.90561 22.4134 6.9773C22.3178 7.26404 22.055 7.4552 21.7443 7.4552H17.8256C17.5149 7.4552 17.2521 7.26404 17.1565 6.9773C17.1326 6.90561 17.1087 6.83393 17.1087 6.73835V6.40382C17.1087 6.26045 17.1565 6.14098 17.2282 6.0215C17.3477 5.83035 17.5866 5.68698 17.8256 5.68698H21.7443C22.0072 5.68698 22.2222 5.80645 22.3417 6.0215C22.4373 6.14098 22.4612 6.28435 22.4612 6.40382ZM13.5006 8.43489H17.8256H21.7443H26.0693C27.0012 8.43489 27.7419 7.69415 27.7419 6.76225V6.69056H34.1458C34.5281 6.69056 34.8387 7.00119 34.8387 7.38351V34.1935L33.0227 36.0096C32.4014 36.6308 32.4014 37.6344 33.0227 38.2557L34.5759 39.8088C34.2891 40.3823 34.0502 40.9797 33.859 41.601H31.7324C30.9677 41.601 30.3226 42.1505 30.1792 42.8674H15.0538C14.7909 42.8674 14.5759 43.0824 14.5759 43.3453C14.5759 43.6081 14.7909 43.8232 15.0538 43.8232H30.1314V44.994C30.1314 46.2127 30.1314 47.1207 30.1314 47.7658C30.1314 48.4349 30.6571 48.9606 31.3262 48.9606H33.9785C34.0741 49.2712 34.2174 49.5818 34.3369 49.8686C34.1697 49.9164 35.5078 49.8925 4.92234 49.8925C4.54002 49.8925 4.22939 49.5818 4.22939 49.1995V7.38351C4.22939 7.00119 4.54002 6.69056 4.92234 6.69056H11.8041V6.76225C11.828 7.67025 12.5687 8.43489 13.5006 8.43489ZM1.64875 54.4803C1.26643 54.4803 0.955794 54.1697 0.955794 53.7873V2.7718C0.955794 2.38949 1.26643 2.07885 1.64875 2.07885H11.828V5.73477H4.94624C4.03823 5.73477 3.29749 6.47551 3.29749 7.38351V49.1995C3.29749 50.1075 4.03823 50.8483 4.94624 50.8483H34.098L33.0466 51.8996C32.4253 52.5209 32.4253 53.5484 33.0466 54.1697L33.3811 54.5042L1.64875 54.4803ZM59.0203 47.1446C59.0203 47.503 58.7336 47.7897 58.3751 47.7897H55.4839C55.4122 48.0287 55.1732 49.0084 54.5281 50.2031L54.3608 50.5137L56.4158 52.5687C56.6786 52.8315 56.6786 53.2378 56.4158 53.4767L53.4767 56.4158C53.2378 56.6547 52.8076 56.6547 52.5687 56.4158L50.5137 54.3608C50.2748 54.4803 49.4385 55.006 48.1243 55.3883L47.7897 55.4839V58.3751C47.7897 58.7336 47.503 59.0203 47.1446 59.0203H42.9869C42.6284 59.0203 42.3417 58.7336 42.3417 58.3751V55.4839C42.1266 55.4122 41.1231 55.1732 39.9283 54.5281L39.6177 54.3608L37.5627 56.4158C37.3238 56.6547 36.8937 56.6547 36.6547 56.4158C36.2963 56.0573 33.8351 53.5962 33.7157 53.4767C33.4767 53.2378 33.4767 52.8076 33.7157 52.5687L35.7706 50.5137C35.6511 50.2509 35.1493 49.4624 34.7909 48.3154L34.6953 47.9809H31.7324C31.4695 47.9809 31.2306 47.8136 31.135 47.5747C31.1111 47.503 31.0872 47.4074 31.0872 47.3357C31.1111 43.0346 31.0394 43.178 31.135 42.9391C31.2306 42.7001 31.4695 42.5568 31.7324 42.5568H34.5759C34.6476 42.3656 34.8626 41.2664 35.5795 39.9522L35.7467 39.6416C34.2413 38.1362 33.8112 37.73 33.7157 37.6105L33.6918 37.5866C33.4528 37.3238 33.4528 36.9176 33.6918 36.6786C35.1016 35.2688 33.3811 36.9892 36.6308 33.7395C36.8698 33.5006 37.2999 33.5006 37.5388 33.7395C37.5627 33.7634 39.5699 35.7706 39.5938 35.7945C39.8088 35.6989 40.6691 35.1493 41.9833 34.767L42.3178 34.6714V31.7802C42.3178 31.4217 42.6045 31.135 42.963 31.135H47.1207C47.4791 31.135 47.7658 31.4217 47.7658 31.7802V34.6714C47.9809 34.7431 48.9606 34.9582 50.1792 35.6272L50.4898 35.7945L52.5448 33.7634C52.8076 33.5245 53.2139 33.5006 53.4528 33.7634L56.3919 36.7025C56.6547 36.9654 56.6547 37.3716 56.3919 37.6105L54.3369 39.6655C54.4325 39.8566 54.9582 40.7168 55.3644 42.055L55.46 42.3895H58.3513C58.7097 42.3895 58.9964 42.6762 58.9964 43.0346L59.0203 47.1446Z" fill="#020202"/>
<path d="M7.52734 12.3297C7.52734 12.5925 7.7424 12.8076 8.00524 12.8076H11.9957C12.2585 12.8076 12.4736 12.5925 12.4736 12.3297C12.4736 12.0669 12.2585 11.8518 11.9957 11.8518H8.00524C7.7424 11.8518 7.52734 12.0669 7.52734 12.3297Z" fill="#020202"/>
<path d="M15.0541 12.8076H31.5654C31.8283 12.8076 32.0433 12.5925 32.0433 12.3297C32.0433 12.0669 31.8283 11.8518 31.5654 11.8518H15.0541C14.7912 11.8518 14.5762 12.0669 14.5762 12.3297C14.5762 12.5925 14.7912 12.8076 15.0541 12.8076Z" fill="#020202"/>
<path d="M15.0541 15.8901H31.5654C31.8283 15.8901 32.0433 15.6751 32.0433 15.4122C32.0433 15.1494 31.8283 14.9343 31.5654 14.9343H15.0541C14.7912 14.9343 14.5762 15.1494 14.5762 15.4122C14.5762 15.6751 14.7912 15.8901 15.0541 15.8901Z" fill="#020202"/>
<path d="M11.9718 18.8291H8.00524C7.7424 18.8291 7.52734 19.0442 7.52734 19.307C7.52734 19.5698 7.7424 19.7849 8.00524 19.7849H11.9957C12.2585 19.7849 12.4736 19.5698 12.4736 19.307C12.4497 19.0442 12.2346 18.8291 11.9718 18.8291Z" fill="#020202"/>
<path d="M15.0541 19.7849H31.5654C31.8283 19.7849 32.0433 19.5698 32.0433 19.307C32.0433 19.0442 31.8283 18.8291 31.5654 18.8291H15.0541C14.7912 18.8291 14.5762 19.0442 14.5762 19.307C14.5762 19.5698 14.7912 19.7849 15.0541 19.7849Z" fill="#020202"/>
<path d="M15.0541 22.8674H31.5654C31.8283 22.8674 32.0433 22.6524 32.0433 22.3895C32.0433 22.1267 31.8283 21.9116 31.5654 21.9116H15.0541C14.7912 21.9116 14.5762 22.1267 14.5762 22.3895C14.5762 22.6524 14.7912 22.8674 15.0541 22.8674Z" fill="#020202"/>
<path d="M11.9718 25.8064H8.00524C7.7424 25.8064 7.52734 26.0215 7.52734 26.2843C7.52734 26.5471 7.7424 26.7622 8.00524 26.7622H11.9957C12.2585 26.7622 12.4736 26.5471 12.4736 26.2843C12.4736 26.0215 12.2346 25.8064 11.9718 25.8064Z" fill="#020202"/>
<path d="M15.0541 26.7622H31.5654C31.8283 26.7622 32.0433 26.5471 32.0433 26.2843C32.0433 26.0215 31.8283 25.8064 31.5654 25.8064H15.0541C14.7912 25.8064 14.5762 26.0215 14.5762 26.2843C14.5762 26.5471 14.7912 26.7622 15.0541 26.7622Z" fill="#020202"/>
<path d="M15.0541 29.8447H31.5654C31.8283 29.8447 32.0433 29.6297 32.0433 29.3668C32.0433 29.104 31.8283 28.8889 31.5654 28.8889H15.0541C14.7912 28.8889 14.5762 29.104 14.5762 29.3668C14.5762 29.6297 14.7912 29.8447 15.0541 29.8447Z" fill="#020202"/>
<path d="M11.9718 32.7837H8.00524C7.7424 32.7837 7.52734 32.9987 7.52734 33.2616C7.52734 33.5244 7.7424 33.7395 8.00524 33.7395H11.9957C12.2585 33.7395 12.4736 33.5244 12.4736 33.2616C12.4497 32.9987 12.2346 32.7837 11.9718 32.7837Z" fill="#020202"/>
<path d="M15.0541 33.7395H31.5654C31.8283 33.7395 32.0433 33.5244 32.0433 33.2616C32.0433 32.9987 31.8283 32.7837 31.5654 32.7837H15.0541C14.7912 32.7837 14.5762 32.9987 14.5762 33.2616C14.5762 33.5244 14.7912 33.7395 15.0541 33.7395Z" fill="#020202"/>
<path d="M15.0541 36.822H31.5654C31.8283 36.822 32.0433 36.607 32.0433 36.3441C32.0433 36.0813 31.8283 35.8662 31.5654 35.8662H15.0541C14.7912 35.8662 14.5762 36.0813 14.5762 36.3441C14.5762 36.607 14.7912 36.822 15.0541 36.822Z" fill="#020202"/>
<path d="M11.9718 39.7611H8.00524C7.7424 39.7611 7.52734 39.9762 7.52734 40.239C7.52734 40.5018 7.7424 40.7169 8.00524 40.7169H11.9957C12.2585 40.7169 12.4736 40.5018 12.4736 40.239C12.4497 39.9762 12.2346 39.7611 11.9718 39.7611Z" fill="#020202"/>
<path d="M15.0541 40.7169H31.5654C31.8283 40.7169 32.0433 40.5018 32.0433 40.239C32.0433 39.9762 31.8283 39.7611 31.5654 39.7611H15.0541C14.7912 39.7611 14.5762 39.9762 14.5762 40.239C14.5762 40.5018 14.7912 40.7169 15.0541 40.7169Z" fill="#020202"/>
<defs>
<linearGradient id="paint0_linear_125_3967" x1="19.657" y1="28.4245" x2="36.5428" y2="35.5111" gradientUnits="userSpaceOnUse">
<stop stop-color="#00D8D8"/>
<stop offset="1" stop-color="#4F9D9C"/>
</linearGradient>
<linearGradient id="paint1_linear_125_3967" x1="21.3399" y1="26.7279" x2="36.5619" y2="32.9005" gradientUnits="userSpaceOnUse">
<stop stop-color="#00D8D8"/>
<stop offset="1" stop-color="#4F9D9C"/>
</linearGradient>
<linearGradient id="paint2_linear_125_3967" x1="46.3639" y1="45.216" x2="59.2674" y2="52.176" gradientUnits="userSpaceOnUse">
<stop stop-color="#00D8D8"/>
<stop offset="1" stop-color="#4F9D9C"/>
</linearGradient>
</defs>
</svg>
