<svg width="61" height="60" viewBox="0 0 61 60" fill="none" xmlns="http://www.w3.org/2000/svg">
<path d="M46.7767 23.6983L34.2868 39.6615V57.9756C34.2868 59.1522 32.8548 59.7287 32.0392 58.878L27.0798 53.703C26.8454 53.4615 26.7165 53.1381 26.7165 52.8006V39.6615L14.2267 23.6983C13.5564 22.8405 14.1681 21.5865 15.2556 21.5865H45.7478C46.8353 21.5865 47.447 22.8405 46.7767 23.6983Z" fill="#00D8D8"/>
<path d="M46.7767 23.6983L34.2868 39.6616V56.3326L31.7673 53.703C31.5329 53.4615 31.404 53.1381 31.404 52.8006V39.6616L18.9142 23.6983C18.2439 22.8405 18.8556 21.5865 19.9431 21.5865H45.7478C46.8353 21.5865 47.447 22.8405 46.7767 23.6983Z" fill="url(#paint0_linear_125_4025)"/>
<path d="M40.7695 12.5374L40.4343 12.8632C40.1601 13.1327 40.0336 13.5195 40.0992 13.9015L40.1765 14.3609C40.3406 15.3195 39.3375 16.0484 38.4773 15.596L38.0625 15.3781C37.7882 15.2351 37.4695 15.207 37.1765 15.2984C37.1062 15.3171 37.0382 15.3429 36.9726 15.3781L36.5578 15.596C35.7 16.0484 34.6945 15.3195 34.8586 14.3609L34.9382 13.9015C35.0039 13.5195 34.8773 13.1327 34.6007 12.8632L34.2656 12.5374C33.5695 11.8601 33.9539 10.6788 34.9148 10.5382L35.3789 10.4702C35.7586 10.4163 36.089 10.1749 36.2601 9.8304L36.4664 9.41086C36.8976 8.53899 38.1398 8.53899 38.5687 9.41086L38.775 9.8304C38.8031 9.88899 38.8382 9.94524 38.8781 9.9968C39.0609 10.2523 39.3422 10.4257 39.6586 10.4702L40.1203 10.5382C41.0812 10.6788 41.4656 11.8601 40.7695 12.5374Z" fill="#01FDFD" fill-opacity="0.99"/>
<path d="M47.4429 5.02568L47.1101 5.35381C46.8336 5.621 46.707 6.01006 46.7726 6.38975L46.8523 6.85146C47.0164 7.80771 46.0109 8.53896 45.1507 8.08662L44.7382 7.86865C44.4945 7.73975 44.2203 7.70225 43.9578 7.76084C43.85 7.77959 43.7445 7.81709 43.6461 7.86865L43.2336 8.08662C42.3734 8.53896 41.3679 7.80771 41.532 6.85146L41.6117 6.38975C41.6773 6.01006 41.5507 5.621 41.2742 5.35381L40.9414 5.02568C40.2453 4.34834 40.6297 3.16709 41.5906 3.02881L42.0523 2.96084C42.4343 2.90459 42.7648 2.66553 42.9336 2.31865L43.1422 1.90146C43.5711 1.02959 44.8132 1.02959 45.2421 1.90146L45.4507 2.31865C45.4742 2.36787 45.5023 2.41709 45.5351 2.46162C45.7156 2.73115 46.0039 2.91162 46.332 2.96084L46.7937 3.02881C47.7547 3.16709 48.139 4.34834 47.4429 5.02568Z" fill="#01FDFD" fill-opacity="0.99"/>
<path d="M20.0601 4.49124L19.7273 4.81936C19.4507 5.08889 19.3242 5.47561 19.3898 5.8553L19.4695 6.31702C19.6336 7.27327 18.6281 8.00452 17.7679 7.55217L17.3554 7.33421C17.0132 7.15374 16.6054 7.15374 16.2632 7.33421L15.8507 7.55217C15.7992 7.57796 15.7476 7.60139 15.6961 7.6178C14.8757 7.9178 13.9945 7.21702 14.1492 6.31702L14.2289 5.8553C14.2945 5.47561 14.1679 5.08889 13.8914 4.81936L13.5586 4.49124C12.8625 3.81389 13.2468 2.63264 14.2078 2.49436L14.6695 2.42639C15.0515 2.37014 15.382 2.13108 15.5507 1.78421L15.7593 1.36702C16.1554 0.560768 17.2453 0.49983 17.7468 1.18421C17.789 1.24046 17.8265 1.30139 17.8593 1.36702L18.0679 1.78421C18.2367 2.13108 18.5672 2.37014 18.9492 2.42639L19.4109 2.49436C20.3718 2.63264 20.7562 3.81389 20.0601 4.49124Z" fill="#01FDFD" fill-opacity="0.99"/>
<path d="M34.5058 5.02568L34.1707 5.35381C33.8941 5.621 33.7675 6.01006 33.8332 6.38975L33.9129 6.85146C34.0769 7.80771 33.0715 8.53896 32.2113 8.08662L31.7988 7.86865C31.4566 7.68818 31.0488 7.68818 30.7089 7.86865L30.5824 7.93428L30.2941 8.08662C29.4339 8.53896 28.4308 7.80771 28.5949 6.85146L28.6722 6.38975C28.7379 6.01006 28.6113 5.621 28.3347 5.35381L28.0019 5.02568C27.3058 4.34834 27.6902 3.16709 28.6511 3.02881L29.1129 2.96084C29.4949 2.90459 29.8254 2.66553 29.9964 2.31865L30.2027 1.90146C30.6316 1.02959 31.8738 1.02959 32.305 1.90146L32.3824 2.05615L32.5113 2.31865C32.6824 2.66553 33.0105 2.90459 33.3925 2.96084L33.8566 3.02881C34.8175 3.16709 35.1996 4.34834 34.5058 5.02568Z" fill="#01FDFD" fill-opacity="0.99"/>
<path d="M33.0175 17.253L32.6824 17.5787C32.4058 17.8483 32.2816 18.2373 32.3449 18.617L32.4246 19.0764C32.5886 20.035 31.5832 20.7639 30.7254 20.3139L30.3105 20.0959C29.9683 19.9155 29.5605 19.9155 29.2207 20.0959L29.2183 20.0983L28.8058 20.3139C27.9457 20.7639 26.9425 20.035 27.1066 19.0764L27.1863 18.617C27.2496 18.2373 27.1254 17.8483 26.8488 17.5787L26.5136 17.253C25.8175 16.5756 26.2019 15.3944 27.1629 15.2537L27.6246 15.1881C28.0066 15.1319 28.3371 14.8928 28.5082 14.5459L28.7144 14.1264C29.1433 13.2569 30.3855 13.2569 30.8168 14.1264L31.023 14.5459C31.0722 14.6467 31.1355 14.7381 31.2105 14.8178C31.3886 15.0147 31.6347 15.1483 31.9066 15.1881L32.3683 15.2537C32.6894 15.3006 32.9472 15.4647 33.1183 15.6873C33.198 15.7858 33.2566 15.8936 33.2988 16.0084C33.4488 16.4162 33.3785 16.9014 33.0175 17.253Z" fill="#01FDFD" fill-opacity="0.99"/>
<path d="M26.2773 10.3787L25.9422 10.7045C25.6679 10.974 25.5414 11.3608 25.607 11.7405L25.6843 12.2022C25.8484 13.1584 24.8453 13.8897 23.9851 13.4373L23.5703 13.2194C23.2304 13.0412 22.8226 13.0412 22.4804 13.2194L22.1453 13.3975L22.0679 13.4373C21.2078 13.8897 20.2023 13.1584 20.3664 12.2022L20.4461 11.7405C20.5117 11.3608 20.3851 10.974 20.1086 10.7045L19.7734 10.3787C19.0773 9.69905 19.4617 8.5178 20.4226 8.37952L20.8867 8.31155C21.2664 8.25764 21.5968 8.01624 21.7679 7.6717L21.9742 7.25217C22.4054 6.3803 23.6476 6.3803 24.0765 7.25217L24.1328 7.36936L24.2828 7.6717C24.4539 8.01624 24.7843 8.25764 25.1664 8.31155L25.6281 8.37952C26.589 8.5178 26.9734 9.69905 26.2773 10.3787Z" fill="#01FDFD" fill-opacity="0.99"/>
<path d="M40.7684 12.5373L40.4332 12.8631C40.159 13.1326 40.0324 13.5194 40.0981 13.9014L40.1754 14.3608C40.3395 15.3194 39.3363 16.0483 38.4762 15.5959L38.0613 15.378C37.7871 15.235 37.4684 15.2069 37.1754 15.2983L37.2082 15.0826C37.2762 14.6655 37.1473 14.2389 36.8613 13.9436L36.5145 13.5873C35.7973 12.842 36.1934 11.5459 37.1871 11.3936L37.6629 11.3209C38.059 11.26 38.3988 10.9951 38.5746 10.6178L38.7879 10.1561C38.8137 10.0998 38.8442 10.0459 38.877 9.9967C39.0598 10.2522 39.341 10.4256 39.6574 10.4701L40.1191 10.5381C41.0801 10.6787 41.4645 11.86 40.7684 12.5373Z" fill="#0AD4E1"/>
<path d="M47.4433 5.02561L47.1105 5.35374C46.834 5.62092 46.7074 6.00999 46.773 6.38967L46.8527 6.85139C47.0168 7.80764 46.0113 8.53889 45.1511 8.08655L44.7387 7.86858C44.4949 7.73967 44.2207 7.70217 43.9582 7.76077C43.9582 7.73967 43.9629 7.71624 43.9652 7.69514L44.0472 7.18889C44.1152 6.7717 43.984 6.34749 43.698 6.05217L43.3535 5.69358C42.634 4.95061 43.0324 3.65452 44.0238 3.50217L44.5019 3.42717C44.8957 3.36624 45.2355 3.10374 45.4137 2.72405L45.5355 2.46155C45.716 2.73108 46.0043 2.91155 46.3324 2.96077L46.7941 3.02874C47.7551 3.16702 48.1394 4.34827 47.4433 5.02561Z" fill="#0AD4E1" fill-opacity="0.83"/>
<path d="M20.0603 4.49124L19.7275 4.81936C19.4509 5.08889 19.3244 5.47561 19.39 5.8553L19.4697 6.31702C19.6337 7.27327 18.6283 8.00452 17.7681 7.55217L17.3556 7.3342C17.0134 7.15374 16.6056 7.15374 16.2634 7.3342L15.8509 7.55217C15.7994 7.57795 15.7478 7.60139 15.6962 7.6178C15.6611 7.46077 15.6564 7.28733 15.6845 7.1092L15.7666 6.60295C15.8345 6.18577 15.7033 5.76155 15.4173 5.46624L15.0728 5.10764C14.3533 4.36467 14.7494 3.06858 15.7431 2.91624L16.2212 2.84124C16.615 2.7803 16.9548 2.5178 17.133 2.13811L17.3462 1.67874C17.4447 1.46545 17.5853 1.30139 17.747 1.1842C17.7892 1.24045 17.8267 1.30139 17.8595 1.36702L18.0681 1.7842C18.2369 2.13108 18.5673 2.37014 18.9494 2.42639L19.4111 2.49436C20.372 2.63264 20.7564 3.81389 20.0603 4.49124Z" fill="#0AD4E1"/>
<path d="M34.5056 5.02568L34.1704 5.35381C33.8939 5.621 33.7673 6.01006 33.8329 6.38975L33.9126 6.85146C34.0767 7.80771 33.0712 8.53896 32.211 8.08662L31.7985 7.86865C31.4564 7.68818 31.0485 7.68818 30.7087 7.86865L30.5821 7.93428C30.5821 7.85693 30.5868 7.77725 30.6009 7.69522L30.6829 7.18897C30.7509 6.77178 30.6196 6.34756 30.336 6.05225L29.9892 5.69365C29.272 4.95068 29.6681 3.65459 30.6595 3.50225L31.1376 3.42725C31.5314 3.36631 31.8735 3.10381 32.0493 2.72412L32.2626 2.26475C32.2978 2.18975 32.3376 2.11943 32.3821 2.05615L32.511 2.31865C32.6821 2.66553 33.0103 2.90459 33.3923 2.96084L33.8564 3.02881C34.8173 3.16709 35.1993 4.34834 34.5056 5.02568Z" fill="#0AD4E1"/>
<path d="M33.0173 17.2529L32.6822 17.5787C32.4056 17.8483 32.2814 18.2373 32.3447 18.617L32.4244 19.0764C32.5884 20.035 31.583 20.7639 30.7251 20.3139L30.3103 20.0959C29.9681 19.9154 29.5603 19.9154 29.2205 20.0959L29.2181 20.0983C29.2345 19.735 29.1056 19.3764 28.8548 19.1186L28.5103 18.76C27.7908 18.017 28.1869 16.7209 29.1806 16.5686L29.6587 16.4936C30.0525 16.4326 30.3923 16.1701 30.5705 15.7904L30.7837 15.3311C30.8869 15.1084 31.0369 14.9373 31.2103 14.8178C31.7798 14.4264 32.6119 14.5975 32.9541 15.3311L33.1181 15.6873L33.1673 15.7904C33.2048 15.8678 33.247 15.9404 33.2986 16.0084C33.4486 16.4162 33.3783 16.9014 33.0173 17.2529Z" fill="#0AD4E1"/>
<path d="M26.2767 10.3788L25.9416 10.7045C25.6673 10.9741 25.5408 11.3608 25.6064 11.7405L25.6837 12.2022C25.8478 13.1584 24.8447 13.8897 23.9845 13.4374L23.5697 13.2194C23.2298 13.0413 22.822 13.0413 22.4798 13.2194L22.1447 13.3975C22.1447 13.3389 22.1517 13.2803 22.1611 13.2194L22.2431 12.7131C22.3087 12.2959 22.1798 11.8717 21.8939 11.5764L21.5494 11.2178C20.8298 10.4749 21.2259 9.17876 22.2197 9.02642L22.6978 8.95142C23.0916 8.89048 23.4314 8.62798 23.6095 8.24829L23.8228 7.78892C23.9025 7.61782 24.008 7.4772 24.1322 7.36938L24.2822 7.67173C24.4533 8.01626 24.7837 8.25767 25.1658 8.31157L25.6275 8.37954C26.5884 8.51782 26.9728 9.69907 26.2767 10.3788Z" fill="#0AD4E1"/>
<path d="M45.7478 21.1178H15.2556C14.5712 21.1178 13.9595 21.4998 13.6595 22.1162C13.3595 22.7303 13.4369 23.4475 13.8587 23.9865L25.9989 39.5052C26.1601 39.7115 26.2478 39.9655 26.2478 40.2273V52.8008C26.2478 53.2602 26.4212 53.6962 26.74 54.029L31.7017 59.204C32.8204 60.3681 34.7556 59.5696 34.7556 57.924V40.2276C34.7556 39.9658 34.8433 39.7117 35.0045 39.5055L47.1447 23.9868C47.5665 23.4477 47.6415 22.7305 47.3439 22.1165C47.0439 21.4998 46.4322 21.1178 45.7478 21.1178ZM46.4064 23.4076L34.7556 38.3022C34.248 39.0278 33.8181 39.28 33.8181 39.9039V41.0209V57.9597C33.8181 58.7296 32.9036 59.1044 32.379 58.5545L27.4173 53.3795C27.2673 53.2225 27.1853 53.0162 27.1853 52.8006V41.0209V39.9039C27.1853 39.2788 26.7562 39.0287 26.2478 38.3022L14.597 23.4076C14.3858 23.1374 14.3572 22.7903 14.5251 22.4842C14.6741 22.2123 14.9722 22.0553 15.2823 22.0553H45.7211C46.0312 22.0553 46.3293 22.2123 46.4783 22.4842C46.6462 22.7901 46.6176 23.1374 46.4064 23.4076Z" fill="#202020"/>
<path d="M33.5227 11.1921C33.1315 12.3942 34.1783 13.0575 34.2727 13.1983C34.6491 13.5642 34.4084 14.028 34.3969 14.2811C34.1684 15.6272 35.5756 16.6425 36.7782 16.0108L37.1907 15.7929C37.8251 15.4612 38.104 16.2007 39.0235 16.2007C40.0147 16.2007 40.8167 15.3079 40.6383 14.2811C40.6254 14.0001 40.3906 13.56 40.7626 13.1983L41.0977 12.8725C42.0676 11.928 41.5388 10.2729 40.1883 10.0741C39.9289 10.0031 39.4222 10.0879 39.1969 9.62176L38.9883 9.20223C38.3907 7.98653 36.6521 7.98184 36.0469 9.20223C35.8962 9.43169 35.829 9.93208 35.311 10.0061C35.1448 10.0673 33.9144 9.98411 33.5227 11.1921ZM36.8883 9.61942C37.1426 9.09559 37.8879 9.09184 38.1493 9.61942L38.3555 10.0366C38.5946 10.5218 39.0563 10.8569 39.5907 10.9343L40.0524 11.0022C40.6276 11.0866 40.8622 11.789 40.4438 12.2022L40.1087 12.528C39.3167 13.3007 39.7158 14.2455 39.7149 14.4405C39.8154 15.018 39.2058 15.4537 38.6954 15.1811C38.4172 15.0579 38.0855 14.7757 37.5188 14.7757C36.9479 14.7757 36.6261 15.0546 36.3399 15.1811C35.821 15.453 35.2208 15.0129 35.3204 14.4405L35.4001 13.9788C35.6628 12.4493 34.1159 12.4047 34.4157 11.4804C34.6018 10.9068 35.2011 11.0081 35.4446 10.9343C36.5281 10.7775 36.7644 9.7884 36.8883 9.61942Z" fill="#202020"/>
<path d="M48.1872 3.68037C47.7925 2.46771 46.5707 2.55912 46.4012 2.49678C45.8849 2.42295 45.8059 1.90709 45.6653 1.69287C45.3864 1.12803 44.8216 0.778809 44.1934 0.778809C42.9217 0.778809 42.6144 1.98654 42.5153 2.1124C42.2809 2.58092 41.7932 2.49021 41.5239 2.56475C40.9005 2.65381 40.3942 3.08271 40.1997 3.68037C39.805 4.89303 40.855 5.5474 40.9497 5.68896C41.3244 6.05834 41.0842 6.49498 41.0716 6.77178C40.9661 7.39053 41.2169 8.00693 41.7255 8.3749C42.0114 8.58584 42.3489 8.69131 42.6887 8.69131C43.2562 8.69131 43.5815 8.40982 43.8653 8.2835C44.3315 8.03975 44.6812 8.40584 44.9341 8.50146C46.1362 9.13287 47.5434 8.10982 47.3153 6.77178C47.3027 6.49662 47.0631 6.05764 47.4372 5.68896C47.5347 5.54342 48.5809 4.88998 48.1872 3.68037ZM46.7833 5.01631C45.6658 6.10662 46.8991 7.04529 46.1106 7.61787C45.6236 7.97529 45.1834 7.53279 44.9575 7.45381C43.6047 6.74412 43.0478 8.18436 42.2762 7.61787C41.7904 7.2649 42.0693 6.72186 42.0747 6.46943C42.3372 4.94178 40.7908 4.8949 41.0903 3.971C41.387 3.05623 42.6721 3.91662 43.3567 2.52725L43.563 2.10771C43.8219 1.58482 44.5647 1.58436 44.8239 2.10771C44.9362 2.26123 45.1794 3.26787 46.2653 3.4249C46.502 3.49639 47.1107 3.39772 47.2966 3.971C47.4829 4.54475 46.9309 4.82248 46.7833 5.01631Z" fill="#202020"/>
<path d="M13.5649 5.15456C13.9397 5.52393 13.6994 5.96057 13.6868 6.23737C13.4585 7.57588 14.8638 8.5994 16.068 7.96706L16.4805 7.74909C16.9467 7.50534 17.2966 7.87167 17.5493 7.96706C18.7648 8.60432 20.1569 7.56628 19.9305 6.23737C19.9179 5.96221 19.6784 5.52323 20.0524 5.15456C20.1497 5.00901 21.1962 4.35581 20.8024 3.14596C20.4077 1.93331 19.1859 2.02471 19.0165 1.96237C18.5002 1.88854 18.4212 1.37268 18.2805 1.15846C17.6782 -0.0612253 15.9377 -0.0584128 15.3368 1.15846C15.1936 1.37643 15.1177 1.88854 14.6009 1.96237C14.4598 2.0144 13.2042 1.95042 12.8149 3.14596C12.4202 4.35862 13.4702 5.01299 13.5649 5.15456ZM13.7055 3.43659C14.0023 2.52159 15.2873 3.38221 15.9719 1.99284C16.1112 1.79221 16.203 1.1819 16.8087 1.1819C17.7752 1.1819 17.3585 2.67018 18.8805 2.89049C19.1173 2.96198 19.7259 2.86331 19.9118 3.43659C20.0979 4.01034 19.5462 4.28784 19.3985 4.4819C18.2869 5.56659 19.5129 6.51182 18.7259 7.08346C18.0975 7.54471 17.7527 6.7319 16.8087 6.7319C15.8632 6.7319 15.5215 7.54588 14.8915 7.08346C14.4054 6.73049 14.6843 6.19635 14.6899 5.93502C14.9524 4.40737 13.406 4.36049 13.7055 3.43659Z" fill="#202020"/>
<path d="M28.2109 6.31006C28.217 6.46521 27.7576 7.63147 28.7851 8.3749C29.8074 9.12303 30.7723 8.32779 30.9273 8.2835C31.3885 8.03951 31.7483 8.40865 31.9937 8.50146C32.5515 8.79443 33.2148 8.74522 33.7234 8.3749C34.7497 7.6324 34.2891 6.47061 34.2952 6.31006C34.2554 6.08272 34.3327 5.85068 34.4968 5.68896C34.5955 5.54154 35.6403 4.88904 35.2468 3.68037C34.8521 2.46771 33.6303 2.55912 33.4609 2.49678C32.9445 2.42295 32.8655 1.90709 32.7249 1.69287C32.446 1.12803 31.8835 0.778809 31.253 0.778809C29.9813 0.778809 29.6741 1.98654 29.5749 2.1124C29.3469 2.57904 28.8488 2.49139 28.5835 2.56475C27.9601 2.65381 27.4538 3.08271 27.2593 3.68037C27.0648 4.27803 27.2241 4.92256 27.6741 5.36318C27.845 5.57623 28.3011 5.79631 28.2109 6.31006ZM28.1499 3.971C28.4452 3.06068 29.7327 3.91451 30.4163 2.52725C30.5555 2.32662 30.6474 1.71631 31.253 1.71631C31.8563 1.71631 31.9463 2.31795 32.0921 2.52725C32.7694 3.91545 34.0595 3.05576 34.3562 3.971C34.5423 4.54475 33.9905 4.82248 33.8429 5.01631C32.7437 6.08881 33.9455 7.05467 33.1702 7.61787C32.3963 8.18576 31.8514 6.74271 30.489 7.45381C30.2612 7.5335 29.8273 7.97482 29.3359 7.61787C28.8505 7.26162 29.1296 6.71436 29.1343 6.46943C29.3961 4.94553 27.8539 4.88365 28.1499 3.971Z" fill="#202020"/>
<path d="M33.3437 17.5882C34.3208 16.6413 33.7811 14.9871 32.4344 14.7897L31.9726 14.7241C31.2475 14.6194 31.4694 13.7669 30.632 13.2522C29.8527 12.7615 28.739 13.0139 28.2953 13.9202C28.1422 14.1522 28.0724 14.6501 27.5594 14.7241C27.4314 14.7712 26.1613 14.7084 25.7711 15.9077C25.379 17.1122 26.4266 17.7752 26.5211 17.9163C26.8926 18.2772 26.6582 18.7186 26.6453 18.9991C26.4137 20.3285 27.8162 21.3621 29.0242 20.7288C29.279 20.6329 29.6324 20.2673 30.0929 20.5108C30.2247 20.5481 31.2165 21.3438 32.2351 20.6022C33.2633 19.8583 32.8007 18.7043 32.807 18.5374C32.7229 18.0262 33.1677 17.8094 33.3437 17.5882ZM32.357 17.2436C31.244 18.3297 32.4683 19.2698 31.6844 19.8452C30.8997 20.407 30.3597 18.9696 29.0031 19.6811C28.7706 19.7618 28.3417 20.1989 27.8476 19.8452C27.3599 19.4871 27.6433 18.9333 27.6484 18.6968C27.9123 17.16 26.3626 17.1251 26.664 16.196C26.9612 15.2791 28.2465 16.1311 28.9281 14.7546C29.0664 14.5561 29.1599 13.9436 29.7648 13.9436C30.7319 13.9436 30.3172 15.4254 31.839 15.6522C32.0701 15.7216 32.6807 15.6183 32.8679 16.196C33.0545 16.7709 32.5096 17.0421 32.357 17.2436Z" fill="#202020"/>
<path d="M19.447 10.7139C19.6237 10.9351 20.0681 11.1456 19.9837 11.6631C19.9901 11.8342 19.5293 12.9805 20.5556 13.728C21.5855 14.4744 22.5443 13.6778 22.6978 13.6342C23.333 13.3021 23.6081 14.042 24.5306 14.042C25.5218 14.042 26.3236 13.1493 26.1455 12.1225C26.1326 11.8415 25.8977 11.4013 26.2697 11.0397C26.3684 10.8925 27.4116 10.2402 27.0197 9.03108C26.6276 7.82663 25.3833 7.90327 25.2314 7.84749C25.0041 7.81467 24.8048 7.6717 24.7041 7.46311C24.6112 7.34522 24.2808 6.12952 23.0259 6.12952C21.7505 6.12952 21.453 7.32905 21.3478 7.46311C21.1169 7.92999 20.6236 7.84209 20.3564 7.91545C18.9937 8.11514 18.4812 9.77803 19.447 10.7139ZM20.9517 8.77561C22.4838 8.55389 22.058 7.06702 23.0259 7.06702C23.6309 7.06702 23.7281 7.68483 23.8626 7.87795C24.544 9.26077 25.8312 8.41069 26.1267 9.3217C26.3182 9.89592 25.7594 10.18 25.6158 10.3694C24.506 11.4454 25.7248 12.4033 24.9431 12.9686C24.4542 13.3237 24.0213 12.8861 23.7876 12.8045C22.8602 12.3226 22.1147 12.9041 21.847 13.0225C21.3253 13.296 20.7291 12.8486 20.8275 12.2819L20.9072 11.8201C21.0947 10.7287 20.2219 10.2114 20.1009 10.0436C19.6826 9.63506 19.9123 8.92889 20.49 8.84358L20.9517 8.77561Z" fill="#202020"/>
<defs>
<linearGradient id="paint0_linear_125_4025" x1="18.5" y1="22" x2="48.4065" y2="50.4169" gradientUnits="userSpaceOnUse">
<stop stop-color="#00D8D8"/>
<stop offset="0.227412" stop-color="#2EB6B5"/>
<stop offset="1" stop-color="#4F9D9C"/>
</linearGradient>
</defs>
</svg>
