<svg width="61" height="60" viewBox="0 0 61 60" fill="none" xmlns="http://www.w3.org/2000/svg">
<path d="M19.6109 19.3992V47.6109H3.88672V19.3992C3.88672 18.7523 4.41172 18.2273 5.05859 18.2273H18.4391C19.0859 18.2273 19.6109 18.7523 19.6109 19.3992Z" fill="#00FFFF"/>
<path d="M57.1148 27.293V47.6109H41.3906V27.293C41.3906 26.6461 41.9156 26.1211 42.5625 26.1211H55.943C56.5898 26.1211 57.1148 26.6461 57.1148 27.293Z" fill="#00FFFF"/>
<path d="M19.6109 19.3992V47.6109H8.57422V19.3992C8.57422 18.7523 9.09922 18.2273 9.74609 18.2273H18.4391C19.0859 18.2273 19.6109 18.7523 19.6109 19.3992Z" fill="#40C4DF"/>
<path d="M57.1148 27.293V47.6109H46.0781V27.293C46.0781 26.6461 46.6031 26.1211 47.25 26.1211H55.943C56.5898 26.1211 57.1148 26.6461 57.1148 27.293Z" fill="#40C4DF"/>
<path d="M38.3625 2.19604V47.6102H22.6406V2.19604C22.6406 1.54917 23.1633 1.02417 23.8125 1.02417H37.1906C37.8375 1.02417 38.3625 1.54917 38.3625 2.19604Z" fill="#00FFFF"/>
<path d="M38.3625 2.19604V47.6102H27.3281V2.19604C27.3281 1.54917 27.8508 1.02417 28.5 1.02417H37.1906C37.8375 1.02417 38.3625 1.54917 38.3625 2.19604Z" fill="#06E7EF" fill-opacity="0.91"/>
<path d="M32.0779 22.243L32.3882 22.8719C32.6444 23.391 33.1396 23.7508 33.7124 23.834L34.4064 23.9347C35.8487 24.1443 36.4248 25.9171 35.3809 26.9345L34.8787 27.4239C34.4643 27.828 34.2751 28.4099 34.3729 28.9806L34.4915 29.6718C34.7378 31.1085 33.2301 32.204 31.9398 31.5257L31.3192 31.1994C30.8069 30.9301 30.1949 30.9301 29.6826 31.1994L29.0619 31.5257C27.7717 32.204 26.264 31.1085 26.5103 29.6718L26.6289 28.9806C26.7266 28.4101 26.5375 27.828 26.1231 27.4239L25.6208 26.9345C24.5772 25.9171 25.153 24.1445 26.5956 23.9347L27.2896 23.834C27.8624 23.7508 28.3576 23.391 28.6138 22.8719L28.9241 22.243C29.5689 20.9359 31.4326 20.9359 32.0779 22.243Z" fill="#0889A5"/>
<path d="M58.0094 58.9765H2.99219C2.34508 58.9765 1.82031 58.4517 1.82031 57.8046V48.7821C1.82031 48.135 2.34508 47.6102 2.99219 47.6102H58.0094C58.6565 47.6102 59.1812 48.135 59.1812 48.7821V57.8046C59.1812 58.4517 58.6567 58.9765 58.0094 58.9765Z" fill="#00FFFF"/>
<path d="M14.2425 26.3617C14.2425 24.8671 13.2609 23.9746 11.7438 23.9746C10.2937 23.9746 9.21164 24.8669 9.14484 26.5848H10.1264C10.1709 25.5698 10.7065 24.8448 11.7548 24.8448C12.848 24.8448 13.2384 25.514 13.2384 26.4065C13.2384 28.0574 11.2308 29.6636 9.11133 31.3703V32.0952H14.4766V31.2475H10.6395C12.0785 30.0763 14.2425 28.3696 14.2425 26.3617Z" fill="#020202"/>
<path d="M50.2838 35.8277V35.7719C51.1316 35.5823 51.7116 34.8574 51.7116 33.9314C51.7116 32.7712 50.8527 31.8567 49.28 31.8567C47.7854 31.8567 46.7368 32.6597 46.6365 34.0429H47.6293C47.7296 33.2622 48.2984 32.7267 49.2467 32.7267C50.2173 32.7267 50.7303 33.2622 50.7303 34.0317C50.7303 34.9687 50.0054 35.3815 48.6556 35.3925H48.388V36.2402H48.6444C50.0945 36.2402 50.8864 36.6752 50.8864 37.8129C50.8864 38.6383 50.3734 39.274 49.2912 39.274C48.2204 39.274 47.5958 38.6158 47.4952 37.7568H46.5137C46.6363 39.3185 47.7741 40.1327 49.3023 40.1327C50.9867 40.1327 51.8567 39.1511 51.8567 37.9019C51.8567 36.7422 51.2209 36.0508 50.2838 35.8277Z" fill="#020202"/>
<path d="M30.2115 14.9798H31.2378V6.91516H29.1406V7.84094H30.2115V14.9798Z" fill="#020202"/>
<path d="M58.0094 47.1421H57.5828V27.2929C57.5828 26.3882 56.8469 25.6523 55.9422 25.6523H42.5617C41.657 25.6523 40.9211 26.3882 40.9211 27.2929V47.1421H38.8305V2.19604C38.8305 1.29136 38.0945 0.55542 37.1898 0.55542H23.8117C22.907 0.55542 22.1711 1.29136 22.1711 2.19604V47.1421H20.0805V19.3992C20.0805 18.4945 19.3445 17.7585 18.4398 17.7585H5.05938C4.15469 17.7585 3.41875 18.4945 3.41875 19.3992V47.1421H2.99219C2.0875 47.1421 1.35156 47.8781 1.35156 48.7828V57.8039C1.35156 58.7085 2.0875 59.4445 2.99219 59.4445H58.0094C58.9141 59.4445 59.65 58.7085 59.65 57.8039V48.7828C59.65 47.8781 58.9141 47.1421 58.0094 47.1421ZM41.8586 27.2929C41.8586 26.9062 42.175 26.5898 42.5617 26.5898H55.9422C56.3289 26.5898 56.6453 26.9062 56.6453 27.2929V47.1421H41.8586V27.2929ZM23.1086 2.19604C23.1086 1.80698 23.4227 1.49292 23.8117 1.49292H37.1898C37.5789 1.49292 37.893 1.80698 37.893 2.19604V47.1421H23.1086V2.19604ZM4.35625 19.3992C4.35625 19.0124 4.67266 18.696 5.05938 18.696H18.4398C18.8266 18.696 19.143 19.0124 19.143 19.3992V47.1421H4.35625V19.3992ZM58.7125 57.8039C58.7125 58.1929 58.3961 58.507 58.0094 58.507H2.99219C2.60547 58.507 2.28906 58.1929 2.28906 57.8039V48.7828C2.28906 48.3937 2.60547 48.0796 2.99219 48.0796C20.7712 48.0796 41.1048 48.0796 58.0094 48.0796C58.3961 48.0796 58.7125 48.3937 58.7125 48.7828V57.8039Z" fill="#020202"/>
<path d="M34.4737 23.4703C34.1187 23.3683 33.2212 23.5026 32.8097 22.664C32.6473 22.4564 32.2432 20.7937 30.5011 20.7937C28.7564 20.7937 28.3437 22.47 28.1925 22.664C27.7821 23.5003 26.8877 23.3671 26.5284 23.4703C24.6966 23.7393 23.9756 25.9872 25.2933 27.2695C25.5213 27.5627 26.3224 27.982 26.1675 28.9007C26.1748 29.1309 25.53 30.7488 26.9339 31.7718C27.3253 32.0554 27.7823 32.1984 28.2417 32.1984C29.5308 32.1984 30.0368 31.0495 31.1011 31.6148C31.3343 31.6823 32.663 32.7914 34.0683 31.7718C35.4853 30.7392 34.827 29.1466 34.8347 28.9007C34.6798 27.9813 35.4773 27.5671 35.7089 27.2695C37.0252 25.9886 36.3077 23.7396 34.4737 23.4703ZM33.9112 29.0601L34.0308 29.7515C34.2105 30.805 33.1071 31.6103 32.1581 31.1109C31.848 31.0096 30.7992 30.082 29.4652 30.7851C29.1403 30.8932 28.3601 31.6464 27.4847 31.0125C26.6091 30.3747 27.0886 29.4016 27.0909 29.0601C27.3457 27.5791 26.1117 26.8249 25.9472 26.5992C25.1855 25.8522 25.5989 24.5538 26.662 24.3984C26.9627 24.3014 28.3683 24.4342 29.0339 23.0789C29.2315 22.803 29.419 21.7312 30.5011 21.7312C32.1698 21.7312 31.4653 23.981 33.6464 24.2976C33.9715 24.4007 35.048 24.2489 35.3808 25.2773C35.888 26.8371 33.5414 26.9104 33.9112 29.0601Z" fill="#020202"/>
</svg>
